<?xml version="1.0" standalone="no"?>
<!DOCTYPE svg PUBLIC "-//W3C//DTD SVG 20010904//EN"
 "http://www.w3.org/TR/2001/REC-SVG-20010904/DTD/svg10.dtd">
<svg version="1.0" xmlns="http://www.w3.org/2000/svg"
 width="229.000000pt" height="229.000000pt" viewBox="0 0 229.000000 229.000000"
 preserveAspectRatio="xMidYMid meet">
<metadata>
Created by potrace 1.11, written by Peter Selinger 2001-2013
</metadata>
<g transform="translate(0.000000,229.000000) scale(0.100000,-0.100000)"
fill="#000000" stroke="none">
<path d="M343 2275 c-166 -45 -285 -165 -328 -331 -12 -48 -15 -175 -14 -793
0 -430 4 -757 10 -786 24 -125 120 -255 228 -309 110 -56 103 -56 913 -56 819
1 793 -1 908 62 104 57 193 178 219 298 7 28 10 332 11 786 0 808 0 800 -58
908 -59 111 -183 201 -307 225 -30 6 -354 10 -790 10 -603 0 -750 -3 -792 -14z"/>
</g>
</svg>
