<?xml version="1.0" standalone="no"?>
<!DOCTYPE svg PUBLIC "-//W3C//DTD SVG 20010904//EN"
 "http://www.w3.org/TR/2001/REC-SVG-20010904/DTD/svg10.dtd">
<svg version="1.0" xmlns="http://www.w3.org/2000/svg"
 width="340.000000pt" height="340.000000pt" viewBox="0 0 340.000000 340.000000"
 preserveAspectRatio="xMidYMid meet">
<metadata>
Created by potrace 1.11, written by Peter Selinger 2001-2013
</metadata>
<g transform="translate(0.000000,340.000000) scale(0.100000,-0.100000)"
fill="#000000" stroke="none">
<path d="M1240 3059 c-234 -72 -432 -134 -440 -138 -13 -7 -16 -83 -20 -556
l-5 -548 -30 25 c-16 14 -41 31 -54 38 -23 12 -23 15 -18 99 2 47 12 115 20
151 27 114 37 231 37 416 0 229 -15 323 -73 464 -74 179 -149 171 -163 -16
l-7 -91 -51 13 c-67 18 -107 18 -134 -2 -29 -20 -28 -53 4 -99 100 -147 125
-306 79 -488 -47 -189 -63 -394 -41 -539 l8 -58 -63 0 c-40 0 -79 -7 -105 -19
-91 -41 -184 -202 -170 -296 9 -58 56 -115 95 -115 32 0 61 27 61 56 0 34 22
51 107 79 86 29 131 30 76 2 -61 -32 -93 -103 -61 -135 7 -7 35 -12 64 -12 79
0 90 -8 52 -34 -19 -12 -36 -35 -42 -54 -13 -45 10 -68 76 -76 54 -7 81 -18
111 -44 16 -14 15 -17 -20 -40 -77 -51 -83 -59 -82 -126 1 -110 4 -103 -53
-120 -29 -8 -96 -25 -149 -36 -152 -33 -163 -61 -64 -175 36 -41 65 -78 65
-83 0 -5 -25 -44 -55 -87 -70 -101 -84 -139 -59 -166 22 -24 52 -24 172 2 209
46 222 53 299 156 33 46 93 158 93 176 0 10 20 27 49 42 l50 25 20 -33 c21
-34 139 -131 247 -204 320 -215 731 -251 1093 -95 105 46 289 166 376 247 32
30 65 55 72 55 23 0 82 -44 87 -65 10 -37 147 -236 169 -245 85 -32 291 -90
324 -90 42 0 83 31 83 62 0 8 -28 50 -61 93 -101 128 -100 116 -14 207 77 80
88 104 58 130 -15 14 -198 73 -284 92 -32 7 -41 30 -43 116 l-1 65 -52 34
c-49 32 -51 36 -37 52 16 18 100 49 132 49 11 0 31 9 46 21 32 25 34 66 6 102
-17 22 -18 26 -4 31 9 3 30 6 48 6 43 0 81 39 72 73 -3 13 -27 43 -52 67 l-47
43 34 -7 c19 -3 51 -15 72 -26 21 -11 49 -20 62 -20 22 0 25 -4 25 -34 0 -69
97 -104 139 -50 17 21 21 41 21 99 0 105 -21 157 -95 231 -68 68 -118 90 -190
82 l-40 -5 4 157 c2 116 -1 172 -12 216 -8 32 -18 86 -22 119 -4 33 -14 85
-21 115 -37 146 5 385 87 489 27 34 24 67 -7 88 -24 16 -32 16 -100 2 -55 -11
-75 -12 -78 -3 -2 6 -8 49 -11 95 -8 89 -24 129 -53 129 -31 0 -62 -44 -103
-146 -82 -204 -101 -466 -54 -736 13 -79 29 -159 35 -178 11 -38 13 -151 4
-186 -6 -22 -79 -59 -95 -48 -5 3 -9 243 -9 533 0 411 -3 531 -12 539 -7 5
-33 15 -58 22 -25 6 -162 47 -305 90 -143 43 -321 97 -396 119 -74 23 -148 41
-165 40 -16 0 -220 -59 -454 -130z m605 41 c167 -51 289 -88 485 -145 107 -31
207 -61 223 -67 l27 -10 0 -528 c0 -573 -3 -611 -57 -748 -20 -50 -29 -62 -42
-56 -9 3 -26 9 -38 11 -28 6 -28 9 -3 73 53 135 55 159 55 690 l0 495 -55 17
c-30 9 -127 38 -215 63 -88 26 -240 71 -339 101 l-178 54 -152 -45 c-83 -24
-205 -60 -271 -80 -66 -19 -167 -49 -225 -66 -58 -17 -115 -34 -127 -39 l-23
-10 0 -463 c0 -494 6 -571 51 -695 34 -93 34 -88 -3 -97 -18 -5 -37 -9 -42 -9
-12 -1 -56 118 -73 204 -22 103 -31 1111 -11 1127 7 5 72 27 143 47 72 21 164
48 205 61 41 13 170 51 285 85 116 34 215 63 220 65 15 6 61 -5 160 -35z
m-1207 -232 c48 -191 48 -468 1 -683 -27 -122 -30 -337 -6 -423 8 -29 11 -50
7 -45 -19 20 -42 126 -47 218 -5 97 0 148 33 320 22 115 29 323 15 429 -7 49
-26 141 -43 205 -17 64 -33 134 -35 156 -4 39 -3 38 25 -25 16 -36 38 -104 50
-152z m2189 91 c-78 -266 -90 -473 -44 -714 45 -230 45 -354 1 -488 -22 -66
-25 -56 -7 23 23 106 19 255 -11 415 -59 309 -41 594 52 824 36 88 41 52 9
-60z m-2236 -129 c30 -124 33 -149 33 -300 0 -138 -4 -184 -24 -280 -34 -158
-35 -393 -3 -488 11 -34 17 -64 13 -67 -5 -3 -16 21 -25 52 -36 129 -44 130
-21 2 8 -42 23 -97 35 -123 11 -26 16 -44 10 -41 -21 13 -52 92 -74 189 -20
86 -24 94 -24 56 -1 -45 18 -147 34 -185 8 -17 7 -18 -7 -7 -17 14 -40 91 -60
202 -11 65 -13 70 -16 37 -3 -39 12 -160 25 -193 4 -11 3 -15 -4 -11 -19 12
-37 140 -38 267 0 87 7 162 22 245 51 275 49 455 -8 589 -16 39 -27 71 -25 73
1 2 22 -4 46 -12 57 -20 60 -19 60 14 0 34 12 123 16 119 1 -2 17 -64 35 -138z
m2282 -7 c3 -3 27 2 53 11 26 9 49 16 50 16 1 0 -11 -30 -26 -68 -63 -149 -66
-317 -9 -612 31 -161 23 -432 -13 -490 -7 -11 -8 -8 -3 10 3 14 8 68 10 120
l4 95 -13 -76 c-18 -100 -43 -186 -58 -195 -8 -5 -9 -1 -4 12 13 31 35 166 34
204 0 28 -3 22 -15 -30 -23 -103 -56 -202 -76 -224 -18 -20 -18 -21 -11 -1 33
91 44 129 52 188 10 79 1 77 -18 -5 -13 -59 -25 -86 -34 -77 -3 3 5 36 17 74
32 103 29 281 -6 478 -44 241 -34 447 34 677 l13 45 7 -73 c4 -40 10 -76 12
-79z m-1163 115 c0 -16 -3 -19 -11 -11 -6 6 -8 16 -5 22 11 17 16 13 16 -11z
m107 0 c-3 -8 -6 -5 -6 6 -1 11 2 17 5 13 3 -3 4 -12 1 -19z m-227 -29 c0 -6
-4 -7 -10 -4 -5 3 -10 11 -10 16 0 6 5 7 10 4 6 -3 10 -11 10 -16z m-91 -29
c0 -10 -3 -8 -9 5 -12 27 -12 43 0 25 5 -8 9 -22 9 -30z m311 30 c0 -5 -5 -10
-11 -10 -5 0 -7 5 -4 10 3 6 8 10 11 10 2 0 4 -4 4 -10z m-350 -15 c0 -8 -2
-15 -4 -15 -2 0 -6 7 -10 15 -3 8 -1 15 4 15 6 0 10 -7 10 -15z m85 -13 c-3
-3 -11 0 -18 7 -9 10 -8 11 6 5 10 -3 15 -9 12 -12z m447 -34 c-7 -7 -10 -5
-7 8 5 29 6 30 12 16 3 -8 1 -18 -5 -24z m-1599 5 c25 -28 65 -128 77 -190 21
-118 10 -296 -35 -538 -18 -99 -18 -254 -1 -360 14 -83 14 -91 -3 -81 -16 11
-32 106 -38 231 -5 103 -2 139 20 255 39 203 47 258 47 343 0 126 -34 247 -92
330 -15 21 -16 27 -5 27 8 0 21 -8 30 -17z m1034 -5 c-3 -8 -6 -5 -6 6 -1 11
2 17 5 13 3 -3 4 -12 1 -19z m814 -23 c68 -20 146 -43 172 -52 l48 -15 -4
-487 c-2 -349 -7 -497 -16 -526 -22 -71 -63 -176 -67 -172 -2 2 7 33 20 69 52
137 56 196 54 672 l-3 439 -170 49 c-93 27 -174 54 -180 60 -7 8 -5 9 6 5 9
-3 72 -22 140 -42z m809 40 c0 -2 -13 -27 -30 -55 -56 -95 -65 -139 -64 -310
1 -130 6 -177 29 -290 23 -106 29 -160 29 -255 -1 -143 -19 -261 -41 -269 -13
-5 -14 -1 -9 26 31 153 29 306 -5 480 -32 164 -42 313 -30 418 12 98 48 199
83 237 20 21 38 30 38 18z m-1771 -19 c-2 -2 -62 -20 -134 -40 -71 -20 -140
-41 -153 -46 l-23 -10 3 -492 3 -493 27 -75 c14 -41 30 -84 34 -95 5 -14 4
-17 -4 -10 -5 6 -25 55 -42 110 l-33 100 -3 477 c-2 361 0 479 9 486 7 5 77
28 157 51 79 23 147 44 149 47 2 2 7 2 9 -1 3 -3 3 -7 1 -9z m121 4 c0 -5 -7
-7 -15 -4 -8 4 -15 8 -15 10 0 2 7 4 15 4 8 0 15 -4 15 -10z m310 -148 c0 -11
-12 -24 -26 -30 -33 -16 -22 -32 21 -32 33 0 33 0 28 41 -5 33 -3 41 8 37 8
-3 14 -17 13 -34 -1 -32 10 -44 41 -44 15 0 16 3 7 12 -14 14 -16 58 -2 58 13
0 32 -38 25 -50 -8 -13 73 -70 91 -63 16 6 9 23 -11 23 -13 0 -29 29 -21 38
13 12 55 -10 58 -30 2 -14 13 -24 32 -29 37 -10 39 -8 27 25 -12 29 -9 31 20
16 10 -6 19 -19 19 -29 0 -19 78 -97 87 -87 3 3 0 12 -7 21 -13 16 -6 65 10
65 14 0 22 -38 15 -70 -5 -22 0 -42 19 -76 30 -53 33 -102 11 -165 -12 -34
-13 -44 -3 -51 25 -15 38 -8 38 21 0 30 21 54 28 33 2 -7 8 -12 14 -12 15 0 1
48 -25 84 -12 17 -21 36 -19 43 1 7 -4 23 -13 36 -12 19 -13 31 -6 51 13 33
17 33 36 -4 12 -24 13 -34 3 -49 -10 -16 -7 -27 20 -68 l32 -48 0 36 c0 49 23
68 38 33 17 -36 15 -52 -8 -64 -14 -8 -20 -21 -20 -45 0 -38 10 -44 30 -20 13
15 60 21 60 8 -1 -19 -33 -48 -52 -48 -12 0 -23 -6 -26 -14 -3 -10 3 -12 26
-6 26 5 33 2 48 -20 9 -14 14 -28 11 -32 -11 -10 -57 7 -57 22 0 8 -7 15 -15
15 -18 0 -20 -43 -2 -58 6 -5 26 -13 44 -16 23 -5 34 -15 42 -36 12 -37 3 -43
-34 -24 -15 8 -29 13 -30 12 -1 -2 0 -24 3 -50 3 -38 8 -48 22 -48 22 0 36
-17 42 -52 3 -18 1 -28 -6 -28 -20 0 -47 24 -51 45 -2 11 -4 22 -4 25 -3 15
-21 -29 -21 -50 0 -34 -27 -70 -52 -70 -17 0 -19 4 -14 28 4 15 15 32 24 39 9
7 23 17 30 23 14 13 16 96 2 105 -6 4 -10 -10 -10 -35 0 -33 -4 -42 -22 -49
-20 -7 -23 -5 -26 21 -3 21 4 36 23 53 20 20 24 30 19 52 -15 65 -89 125 -164
135 -61 8 -22 -29 71 -67 16 -7 25 -19 27 -37 2 -16 0 -28 -5 -28 -14 1 -44
28 -46 42 -2 7 -7 14 -12 15 -6 1 -9 -9 -7 -22 5 -35 -14 -31 -21 4 -6 29 -31
61 -48 61 -14 0 -11 -16 6 -30 19 -16 19 -34 1 -49 -16 -14 -26 4 -26 48 0 15
-5 32 -12 39 -14 14 -94 16 -103 2 -3 -5 0 -10 7 -11 10 0 10 -2 1 -6 -10 -3
-9 -11 2 -34 20 -37 28 -37 23 1 -4 24 -1 30 13 30 25 0 49 -27 49 -56 0 -27
-9 -30 -29 -11 -11 10 -12 7 -6 -13 4 -14 10 -31 12 -37 7 -19 -32 -16 -51 3
-9 8 -16 29 -16 45 0 48 -16 69 -54 69 -22 0 -39 -8 -54 -25 -12 -14 -26 -25
-31 -25 -15 0 -22 -33 -9 -42 7 -4 9 -8 4 -8 -6 0 2 -12 16 -27 30 -34 37 -52
29 -76 -6 -16 -8 -16 -29 4 -15 14 -22 30 -20 47 2 18 -2 27 -12 27 -19 0 -34
-70 -20 -95 6 -10 10 -31 10 -47 0 -15 7 -47 15 -69 11 -32 12 -50 3 -80 -7
-28 -7 -39 1 -42 13 -4 15 -81 2 -115 -10 -24 -9 -25 34 -25 27 1 56 -7 79
-20 l37 -22 38 40 c27 28 46 40 66 40 17 0 37 10 51 25 13 14 32 25 43 25 11
0 25 9 31 20 6 11 16 20 22 20 7 0 6 -5 -2 -15 -17 -20 -1 -19 22 2 11 10 18
12 18 4 0 -7 -13 -20 -30 -29 -16 -9 -30 -24 -30 -32 0 -25 -29 -60 -50 -60
-10 0 -21 -8 -24 -18 -11 -33 -54 -65 -89 -66 -21 -1 -46 -12 -66 -28 -17 -15
-48 -30 -69 -33 -20 -4 -48 -11 -62 -16 -14 -5 -41 -8 -60 -8 -19 0 -44 0 -55
-1 -107 -3 -232 24 -270 60 -20 18 -41 28 -63 28 -43 1 -80 25 -88 57 -4 18
-13 25 -31 25 -18 0 -28 9 -39 38 -9 20 -29 47 -45 60 -16 13 -29 28 -29 34 0
7 12 1 27 -13 23 -21 25 -22 19 -4 -7 19 -6 19 16 -1 13 -12 35 -24 50 -28 15
-3 30 -15 33 -26 4 -11 15 -20 26 -20 27 0 69 -23 98 -54 l24 -26 34 20 c20
12 52 20 77 20 52 0 60 6 41 34 -19 26 -19 63 0 99 11 22 12 34 4 49 -12 23
-5 73 14 96 20 25 25 165 6 188 -18 21 -32 17 -26 -8 4 -15 -1 -32 -13 -48
-17 -21 -21 -23 -30 -10 -6 8 -8 25 -5 37 5 20 3 20 -25 10 -16 -6 -32 -8 -36
-4 -13 13 25 55 54 59 26 4 28 2 24 -21 -5 -26 -5 -26 17 -7 16 15 18 21 9 28
-10 6 -8 8 5 8 9 0 17 4 17 9 0 15 -30 41 -47 41 -9 0 -13 3 -10 7 11 10 -26
32 -55 33 -17 0 -33 -9 -43 -22 l-17 -23 7 23 c9 31 -13 28 -25 -4 -14 -37
-13 -49 5 -34 13 11 15 8 15 -18 0 -30 -11 -44 -44 -56 -15 -5 -17 -3 -12 16
19 62 19 64 5 51 -22 -21 -30 -15 -27 20 3 28 8 34 46 45 54 18 54 32 -2 32
-51 0 -68 -15 -71 -65 -3 -45 -13 -55 -30 -31 -12 16 -12 22 0 40 23 32 17 42
-10 16 -14 -13 -25 -31 -25 -41 0 -10 11 -29 25 -43 30 -30 32 -46 6 -46 -12
0 -23 11 -30 30 -15 45 -24 36 -16 -16 7 -47 -4 -74 -31 -74 -19 0 -18 40 1
67 8 12 18 43 20 70 4 34 3 42 -4 28 -5 -11 -20 -31 -35 -44 -22 -21 -26 -22
-32 -8 -8 23 -1 49 16 57 107 49 131 64 117 71 -8 5 -36 2 -64 -6 -93 -28
-170 -145 -114 -174 10 -6 24 -25 30 -42 14 -39 14 -39 -1 -39 -20 0 -48 32
-48 57 0 12 -4 23 -10 23 -5 0 -10 -23 -10 -50 0 -44 3 -52 23 -59 24 -9 55
-66 43 -78 -13 -13 -56 17 -61 44 -4 15 -11 39 -17 53 l-10 25 -13 -31 c-12
-28 -41 -51 -52 -40 -12 11 16 62 39 73 21 11 26 22 32 69 7 65 2 79 -15 40
-8 -17 -20 -26 -36 -26 -23 0 -23 1 -9 29 10 18 26 30 45 34 33 7 56 39 46 64
-5 14 -8 13 -26 -5 -18 -20 -69 -31 -69 -15 0 18 36 43 62 43 15 0 28 5 28 10
0 6 -10 10 -23 10 -15 0 -29 11 -40 30 l-18 30 30 0 c21 0 32 -6 36 -20 10
-31 22 -24 28 17 5 29 2 42 -13 58 -20 22 -27 69 -11 79 12 8 39 -25 43 -54 3
-23 5 -22 29 18 14 23 29 39 32 35 11 -10 48 28 64 65 10 25 11 37 2 53 -8 16
-8 28 0 46 15 33 34 18 29 -23 -2 -19 -2 -34 1 -34 3 0 22 12 43 26 25 18 38
34 38 50 0 12 8 30 18 40 16 17 17 17 20 -5 2 -13 -4 -29 -15 -37 -16 -14 -14
-15 22 -8 22 4 53 6 69 5 38 -2 96 37 96 65 0 12 7 27 15 34 23 19 32 -16 10
-40 -16 -17 -16 -20 -2 -20 31 0 47 13 47 36 0 16 8 28 23 34 32 13 37 12 37
-8z m-189 -66 c-7 -8 -21 -16 -31 -19 -32 -8 -25 30 8 41 30 10 41 -1 23 -22z
m-303 -138 c10 -35 0 -58 -25 -58 -21 0 -27 27 -13 60 16 39 27 38 38 -2z
m322 -362 c0 -15 -46 -56 -62 -56 -11 0 -1 38 14 58 14 17 48 15 48 -2z m382
-11 c6 -14 8 -28 5 -32 -13 -12 -57 16 -57 37 0 30 38 26 52 -5z m218 -49 c0
-8 -7 -22 -16 -30 -14 -15 -44 -22 -44 -11 0 2 5 16 12 30 12 27 48 35 48 11z
m-230 -22 c13 -34 13 -34 -9 -34 -23 0 -51 25 -51 46 0 8 10 14 25 14 18 0 28
-7 35 -26z m283 -55 c-6 -21 -6 -21 -27 -13 -16 6 -21 39 -10 69 6 14 9 12 24
-10 10 -15 15 -35 13 -46z m-841 -94 c12 -5 13 -26 9 -101 -1 -5 -7 -18 -13
-27 -11 -15 -13 -5 -13 58 0 41 1 75 2 75 1 0 7 -2 15 -5z m75 -25 c2 -21 1
-22 -5 -6 -5 11 -17 23 -28 28 -16 6 -15 7 6 5 19 -1 26 -8 27 -27z m630 4
c20 -20 24 -31 19 -57 -10 -49 -25 -56 -19 -8 4 31 1 46 -12 61 -18 20 -54 27
-56 13 -7 -47 -5 -110 5 -116 7 -6 6 -7 -4 -4 -15 4 -27 94 -16 123 9 23 55
16 83 -12z m-640 -51 c1 -10 4 -29 9 -42 5 -17 4 -22 -4 -17 -7 4 -12 16 -12
26 0 10 -5 22 -11 26 -9 5 -2 16 16 24 1 0 1 -8 2 -17z m-665 -70 c58 -53 78
-102 78 -194 0 -67 -4 -84 -34 -140 l-33 -65 -20 46 c-12 25 -26 76 -33 113
-7 37 -23 84 -36 103 -13 19 -24 37 -24 41 0 3 16 2 35 -1 l34 -7 -19 43 c-24
52 -26 98 -5 98 8 0 34 -17 57 -37z m1978 12 c0 -14 -7 -42 -15 -62 -20 -48
-20 -50 15 -45 35 5 38 -4 10 -32 -19 -21 -50 -120 -50 -161 0 -11 -11 -41
-24 -67 l-24 -48 -11 31 c-6 16 -20 44 -32 61 -18 25 -22 45 -22 112 -1 71 3
87 28 135 28 50 84 101 112 101 7 0 13 -11 13 -25z m-2266 -148 c163 -77 276
-241 302 -436 5 -40 3 -49 -11 -55 -10 -3 -19 -5 -20 -4 -2 2 -12 35 -24 73
-22 74 -75 175 -91 175 -6 0 1 -22 15 -50 14 -27 25 -52 25 -54 0 -3 -21 15
-46 39 -64 63 -74 56 -19 -12 42 -51 105 -160 105 -180 0 -4 -14 -16 -32 -26
l-31 -18 -36 35 c-41 40 -97 66 -141 66 -58 0 -23 40 54 62 l49 15 -36 27
c-40 30 -113 56 -161 56 l-31 1 37 34 c41 38 106 60 155 52 57 -10 34 22 -47
64 -67 35 -155 32 -238 -6 -53 -24 -67 -27 -83 -16 -18 10 -21 8 -35 -25 -9
-20 -13 -46 -11 -56 4 -14 1 -18 -11 -16 -21 4 -29 86 -13 139 16 55 64 113
112 138 65 33 165 25 263 -22z m2765 8 c57 -39 92 -100 98 -173 6 -59 -9 -108
-28 -97 -5 4 -9 23 -9 44 0 46 -24 84 -39 61 -9 -13 -15 -13 -43 -1 -103 42
-145 53 -190 48 -62 -8 -168 -62 -168 -86 0 -4 18 -5 41 -3 51 5 117 -20 154
-58 l29 -30 -31 0 c-47 0 -128 -30 -165 -60 l-33 -28 40 -7 c41 -8 95 -39 95
-56 0 -5 -14 -9 -30 -9 -46 0 -100 -26 -146 -71 -41 -41 -42 -41 -72 -25 -29
15 -30 19 -21 43 22 60 72 142 115 191 58 66 41 68 -25 3 -28 -27 -51 -47 -51
-43 0 4 11 29 24 55 13 26 19 46 12 44 -22 -7 -66 -94 -88 -175 -17 -60 -27
-82 -38 -80 -23 5 -23 50 -1 137 27 110 66 185 133 257 93 99 216 156 329 151
55 -2 74 -8 108 -32z m-2114 -111 c14 -6 13 -8 -5 -21 -25 -18 -25 -28 1 -61
l21 -27 -29 -5 c-26 -5 -28 -9 -25 -43 6 -61 -12 -71 -52 -31 -52 52 -112 42
-171 -28 -24 -29 -27 -38 -22 -85 3 -30 1 -55 -4 -59 -16 -9 -19 -2 -30 66
-14 86 6 151 66 217 34 39 56 54 97 66 56 16 125 21 153 11z m1323 -9 c127
-38 194 -155 169 -297 -11 -70 -13 -73 -35 -60 -9 7 -10 16 -1 40 15 45 4 94
-29 124 -63 59 -106 63 -162 12 l-39 -36 -6 24 c-4 14 -5 38 -3 54 3 25 -1 29
-24 32 -25 3 -26 5 -16 28 6 13 15 24 20 24 16 0 8 29 -13 43 -15 11 -17 16
-7 20 26 11 96 7 146 -8z m-1214 -232 c4 -7 5 -13 2 -13 -7 0 -66 83 -66 93 0
9 42 -45 64 -80z m1020 60 c-33 -52 -49 -72 -57 -73 -7 0 20 43 52 83 22 27
25 20 5 -10z m-1116 -90 c-50 -15 -66 -8 -40 21 11 11 23 32 27 45 7 22 8 22
30 -15 l24 -39 -41 -12z m1193 21 c12 -13 16 -24 10 -28 -14 -9 -91 4 -91 15
0 5 10 25 22 44 22 33 23 33 31 12 5 -12 17 -32 28 -43z m-321 -25 c202 -22
433 -82 612 -159 88 -38 241 -121 234 -127 -1 -2 -23 4 -47 13 -113 41 -133
37 -46 -9 28 -15 66 -39 82 -52 30 -24 29 -24 -50 5 -91 34 -85 32 -85 23 0
-5 24 -21 54 -36 29 -15 66 -42 82 -59 26 -28 27 -29 6 -18 -35 18 -135 51
-139 46 -3 -2 17 -17 44 -32 94 -55 156 -116 76 -76 -48 24 -113 45 -119 39
-3 -2 19 -18 48 -35 61 -36 118 -82 102 -82 -6 0 -37 11 -68 25 -73 32 -104
32 -47 0 51 -30 121 -84 121 -94 0 -4 -32 8 -71 27 -38 19 -72 32 -75 30 -2
-3 22 -23 53 -45 32 -23 67 -51 78 -64 23 -26 24 -26 -70 31 -202 124 -467
218 -737 262 -176 28 -485 31 -663 5 -283 -42 -574 -140 -776 -263 -33 -20
-62 -34 -65 -32 -4 4 57 55 121 103 37 27 -5 15 -73 -20 l-67 -35 49 45 c27
26 67 55 89 66 64 33 34 33 -44 0 -40 -17 -74 -29 -76 -27 -7 6 60 57 114 88
29 16 53 31 53 33 0 7 -144 -45 -169 -61 -24 -16 -24 -15 4 15 17 18 59 50 95
72 36 21 61 39 56 39 -15 0 -130 -43 -144 -53 -7 -5 -15 -7 -18 -4 -6 5 62 54
129 93 54 31 26 31 -58 0 -83 -30 -70 -10 29 44 76 43 66 51 -24 20 -30 -10
-56 -17 -58 -15 -4 4 71 45 140 78 258 122 524 186 878 211 79 5 328 -3 440
-15z m-368 -469 l70 -61 28 23 c16 13 48 39 72 60 42 35 45 36 100 30 l57 -7
-92 -81 c-51 -44 -108 -92 -127 -107 l-36 -26 -60 47 c-33 26 -91 74 -127 107
l-67 60 37 6 c21 3 46 7 57 8 10 0 50 -26 88 -59z m44 39 c24 -22 32 -21 74 8
l25 17 -20 -23 c-35 -41 -49 -43 -86 -11 -19 16 -30 29 -25 30 6 0 20 -10 32
-21z m-499 -115 c140 -101 272 -156 425 -176 193 -26 415 38 613 176 81 57 90
61 81 48 -14 -23 -133 -101 -221 -145 -142 -72 -225 -91 -385 -91 -151 0 -216
13 -337 69 -73 34 -185 104 -238 149 -52 44 -19 28 62 -30z m-727 -157 l0
-202 -130 -34 c-72 -19 -132 -32 -135 -30 -2 3 30 53 71 113 l74 108 -75 88
c-41 49 -75 90 -75 93 0 2 44 14 98 27 53 12 111 26 127 30 17 5 33 9 38 9 4
1 7 -90 7 -202z m636 182 c31 -34 173 -125 254 -162 41 -19 115 -45 165 -57
77 -19 107 -22 215 -17 84 3 149 12 199 27 119 34 277 119 390 208 24 19 25
19 93 -4 92 -31 92 -31 73 -61 -18 -27 -7 -25 27 5 10 8 18 10 18 5 0 -6 -28
-37 -62 -68 -292 -268 -655 -369 -1005 -280 -182 46 -405 177 -538 316 -47 49
-46 59 3 16 26 -24 29 -16 6 18 -15 23 -15 26 2 24 4 0 10 3 13 9 6 10 86 39
112 41 9 0 24 -8 35 -20z m1980 -9 c69 -17 130 -33 135 -36 5 -3 -11 -26 -35
-52 -103 -111 -110 -121 -98 -147 6 -13 33 -55 60 -92 27 -37 57 -80 66 -95
l18 -27 -94 25 c-51 14 -113 31 -138 37 l-45 12 -3 203 c-1 111 0 202 2 202 3
0 62 -14 132 -30z m-2060 -190 c143 -109 300 -190 434 -225 52 -13 85 -24 74
-25 -35 0 -188 47 -266 83 -119 55 -244 141 -358 244 -40 36 9 4 116 -77z
m1485 56 c-74 -76 -320 -230 -401 -250 -14 -4 16 13 65 37 110 53 175 96 280
181 44 36 82 65 84 66 3 0 -10 -15 -28 -34z m-1918 -117 l-68 -100 -3 47 c-2
25 -1 53 2 60 4 12 121 94 133 94 2 0 -27 -45 -64 -101z m2235 59 c69 -47 82
-65 82 -115 0 -28 -4 -42 -10 -38 -14 8 -132 185 -125 185 4 0 27 -14 53 -32z
m-811 -224 c-3 -3 -12 -4 -19 -1 -8 3 -5 6 6 6 11 1 17 -2 13 -5z m-40 -10
c-3 -3 -12 -4 -19 -1 -8 3 -5 6 6 6 11 1 17 -2 13 -5z m-44 -11 c-7 -2 -19 -2
-25 0 -7 3 -2 5 12 5 14 0 19 -2 13 -5z m-330 -10 c-7 -2 -21 -2 -30 0 -10 3
-4 5 12 5 17 0 24 -2 18 -5z m270 0 c-7 -2 -21 -2 -30 0 -10 3 -4 5 12 5 17 0
24 -2 18 -5z m-100 -10 c-24 -2 -62 -2 -85 0 -24 2 -5 4 42 4 47 0 66 -2 43
-4z"/>
<path d="M1597 2620 c-16 -5 -35 -14 -43 -21 -13 -11 -12 -14 10 -26 28 -15
35 -43 11 -43 -8 0 -20 9 -27 20 -16 25 -34 26 -41 3 -2 -10 -8 -25 -11 -33
-5 -13 8 -15 85 -15 77 0 93 -3 105 -19 11 -16 16 -17 29 -6 9 7 13 21 10 31
-4 10 -2 26 3 34 8 15 10 15 21 1 10 -11 10 -20 3 -28 -8 -10 8 -13 74 -13 46
0 84 2 84 6 0 3 -5 21 -11 39 -12 32 -12 32 -28 12 -9 -11 -26 -23 -38 -27
-37 -10 -29 23 9 38 l31 13 -27 18 c-15 9 -44 20 -64 22 -37 5 -37 5 -14 -12
24 -18 30 -44 9 -44 -7 0 -24 14 -39 30 -27 31 -58 40 -58 17 0 -16 -32 -47
-48 -47 -20 0 -13 27 11 43 21 15 21 16 2 16 -11 -1 -33 -5 -48 -9z m107 -56
c8 -21 8 -20 -10 -38 -18 -19 -34 -13 -34 13 0 17 18 41 31 41 4 0 10 -7 13
-16z"/>
<path d="M1920 2578 c0 -5 7 -23 16 -40 l16 -31 17 22 c12 15 26 22 41 19 38
-5 34 -25 -7 -35 -51 -12 -56 -42 -14 -73 28 -19 43 -60 23 -60 -11 0 -38 30
-45 50 -3 8 -6 -4 -6 -27 -1 -23 -10 -65 -21 -93 -22 -57 -20 -71 10 -63 23 6
23 8 11 32 -12 21 2 47 19 36 7 -4 10 -19 6 -36 -7 -35 7 -37 77 -13 34 12 49
22 53 40 3 13 10 22 14 19 14 -8 22 14 23 59 1 81 -90 177 -185 195 -29 5 -48
5 -48 -1z m181 -104 c10 -13 10 -17 -2 -25 -20 -12 -32 -11 -54 4 -10 8 -15
19 -11 25 10 17 51 15 67 -4z m24 -102 c8 -22 -6 -31 -32 -21 -16 6 -23 17
-23 33 0 23 2 25 24 14 14 -6 28 -18 31 -26z m-91 -38 c9 -8 16 -21 16 -29 0
-18 -37 -8 -53 15 -7 9 -19 19 -27 23 -8 3 -1 6 17 6 17 1 39 -6 47 -15z"/>
<path d="M1384 2560 c-23 -12 -52 -32 -64 -45 l-23 -25 25 0 c32 0 58 -9 58
-20 0 -14 -53 -28 -86 -23 -26 4 -32 1 -37 -19 -11 -38 -8 -73 8 -94 13 -18
14 -17 15 18 0 38 19 58 54 58 22 0 0 -57 -25 -65 -19 -7 -25 -31 -11 -52 10
-16 75 -43 102 -43 15 0 20 7 20 28 0 15 4 33 9 41 13 20 24 -4 16 -38 -4 -21
-2 -30 11 -35 27 -10 29 1 11 58 -9 29 -17 68 -17 86 l0 34 -29 -28 c-24 -23
-29 -25 -35 -11 -11 29 15 61 46 56 4 0 10 9 13 20 8 24 -10 49 -35 49 -20 0
-43 23 -33 33 14 14 51 6 64 -14 14 -20 15 -20 32 15 l17 36 -33 0 c-17 0 -50
-9 -73 -20z m26 -228 c0 -11 -11 -24 -25 -30 -22 -10 -25 -9 -25 6 0 21 19 42
37 42 7 0 13 -8 13 -18z"/>
<path d="M1557 2483 c-4 -3 -21 -6 -37 -5 -19 0 -33 -5 -37 -14 -8 -21 4 -29
21 -15 11 9 15 8 20 -4 8 -22 -4 -47 -21 -41 -11 4 -14 -1 -11 -21 2 -22 10
-29 35 -34 18 -3 44 -14 59 -24 22 -14 28 -15 35 -4 20 31 10 49 -25 49 -19 0
-38 4 -41 10 -9 15 41 23 64 11 18 -10 23 -8 40 20 22 36 21 44 -9 52 -14 4
-30 -4 -51 -24 -32 -32 -65 -40 -55 -13 3 9 6 17 6 19 0 2 17 9 37 16 33 10
35 13 18 20 -26 10 -40 11 -48 2z"/>
<path d="M1773 2468 c-55 -22 -56 -24 -19 -73 12 -16 17 -18 27 -7 16 15 55
16 65 1 9 -16 -17 -29 -43 -22 -19 4 -23 1 -23 -16 0 -12 6 -24 13 -27 16 -6
108 32 119 49 13 21 9 38 -9 35 -14 -2 -19 5 -21 32 -4 34 -4 34 17 16 21 -19
21 -19 21 3 0 17 -6 21 -27 20 -16 0 -37 2 -48 5 -11 3 -43 -4 -72 -16z m65
-14 c24 -16 30 -44 10 -44 -21 0 -34 13 -40 38 -7 26 0 28 30 6z"/>
<path d="M1680 2379 c-11 -26 -11 -33 4 -47 15 -15 18 -15 37 5 20 20 20 22 4
47 -22 34 -30 33 -45 -5z"/>
<path d="M1181 2372 c-11 -16 -23 -41 -27 -58 -6 -25 -5 -27 8 -17 19 16 28 7
28 -30 0 -27 2 -29 27 -22 37 9 37 8 18 45 -9 17 -17 49 -18 71 -2 46 -9 49
-36 11z"/>
<path d="M1515 2293 c20 -48 25 -52 25 -20 0 15 4 27 8 27 18 0 31 -24 26 -49
-4 -18 1 -35 15 -51 l20 -25 1 30 c0 51 -54 124 -93 125 -16 0 -16 -2 -2 -37z"/>
<path d="M1854 2315 c-25 -17 -54 -74 -54 -104 0 -27 17 -27 25 -1 4 11 10 18
15 15 5 -3 14 5 21 17 11 21 11 22 -4 9 -14 -11 -18 -11 -24 4 -4 12 0 23 13
32 16 12 19 11 25 -4 5 -15 9 -12 23 15 16 30 16 32 -2 32 -9 0 -27 -7 -38
-15z"/>
<path d="M1656 2313 c-3 -3 -6 -22 -6 -42 1 -34 2 -35 15 -17 8 11 15 28 15
37 0 20 -14 32 -24 22z"/>
<path d="M1731 2306 c-9 -10 -9 -20 0 -40 18 -38 29 -32 22 12 -7 45 -7 46
-22 28z"/>
<path d="M1150 2241 c0 -11 4 -21 9 -21 18 0 21 18 6 30 -13 10 -15 9 -15 -9z"/>
<path d="M2229 2244 c-10 -13 -10 -17 1 -24 15 -9 30 4 30 28 0 17 -15 15 -31
-4z"/>
<path d="M1697 2213 c-9 -8 -9 -66 -1 -88 5 -13 8 -14 15 -3 18 27 5 110 -14
91z"/>
<path d="M1740 2051 c-7 -17 -8 -36 -4 -43 6 -9 11 0 15 27 9 50 5 54 -11 16z"/>
<path d="M1658 2034 c3 -22 8 -32 14 -26 10 10 1 62 -11 62 -4 0 -5 -16 -3
-36z"/>
<path d="M1690 1980 c-13 -8 -13 -11 1 -25 13 -14 17 -14 27 -2 16 19 -7 40
-28 27z"/>
<path d="M1693 1893 c-17 -6 -16 -28 1 -42 21 -17 45 15 25 33 -8 8 -20 12
-26 9z"/>
<path d="M1647 1823 c-15 -15 -6 -43 13 -43 11 0 20 3 20 8 -1 14 -27 42 -33
35z"/>
<path d="M1747 1812 c-22 -24 -21 -32 3 -32 15 0 20 7 20 25 0 30 -2 30 -23 7z"/>
<path d="M1685 1739 c-8 -12 14 -31 30 -26 6 2 10 10 10 18 0 17 -31 24 -40 8z"/>
<path d="M1647 1684 c-4 -4 -7 -18 -7 -31 0 -17 5 -24 17 -21 9 2 18 8 20 13
5 15 -21 48 -30 39z"/>
<path d="M1742 1670 c-16 -26 -16 -27 8 -40 18 -10 20 -8 20 25 0 39 -9 45
-28 15z"/>
<path d="M1230 1651 c0 -13 29 -35 37 -28 7 8 -15 37 -28 37 -5 0 -9 -4 -9 -9z"/>
<path d="M2150 1640 c-6 -11 -7 -20 -2 -20 10 0 32 21 32 32 0 16 -19 8 -30
-12z"/>
<path d="M1684 1595 c-8 -19 12 -36 33 -28 19 7 12 37 -10 41 -9 2 -20 -4 -23
-13z"/>
<path d="M1330 1571 c0 -13 41 -41 59 -41 10 0 8 7 -9 25 -24 25 -50 33 -50
16z"/>
<path d="M2026 1558 c-21 -29 -20 -39 2 -31 22 8 52 34 52 45 0 17 -40 7 -54
-14z"/>
<path d="M1620 1550 c-8 -5 -33 -10 -55 -10 l-40 -1 34 -15 c33 -14 36 -14 60
11 27 26 27 32 1 15z"/>
<path d="M1799 1527 c15 -15 22 -16 44 -6 38 17 33 24 -18 24 -43 0 -44 -1
-26 -18z"/>
<path d="M1685 1510 c3 -5 15 -10 26 -10 10 0 19 5 19 10 0 6 -12 10 -26 10
-14 0 -23 -4 -19 -10z"/>
<path d="M1460 1503 c0 -12 51 -33 77 -33 36 0 27 18 -14 29 -45 13 -63 14
-63 4z"/>
<path d="M1870 1495 c-44 -12 -44 -12 -17 -20 30 -8 77 7 77 25 0 12 -2 12
-60 -5z"/>
<path d="M1649 1477 c15 -19 41 -23 41 -7 0 6 -4 10 -9 10 -5 0 -18 3 -28 7
-16 6 -16 5 -4 -10z"/>
<path d="M1743 1483 c-7 -2 -13 -9 -13 -14 0 -14 26 -10 40 6 10 12 10 15 -1
14 -8 0 -20 -3 -26 -6z"/>
<path d="M1790 1455 c-10 -13 -9 -15 8 -15 15 0 20 5 16 15 -4 8 -7 15 -9 15
-1 0 -8 -7 -15 -15z"/>
<path d="M1590 1450 c0 -5 9 -10 21 -10 11 0 17 5 14 10 -3 6 -13 10 -21 10
-8 0 -14 -4 -14 -10z"/>
<path d="M265 1593 c-42 -15 -110 -53 -95 -53 3 0 34 9 68 20 75 23 179 26
237 5 54 -19 56 -11 4 16 -59 30 -149 35 -214 12z"/>
<path d="M2959 1595 c-26 -8 -52 -21 -58 -29 -10 -12 -5 -12 36 0 68 21 157
19 233 -5 35 -11 66 -19 68 -17 2 2 -22 16 -52 31 -69 34 -160 42 -227 20z"/>
<path d="M930 1462 c-34 -17 -100 -93 -100 -115 0 -6 20 12 45 40 25 29 61 57
80 64 19 7 32 16 29 21 -7 11 -15 10 -54 -10z"/>
<path d="M2420 1470 c0 -5 9 -10 21 -10 13 0 45 -24 80 -60 32 -33 59 -57 59
-52 0 16 -56 87 -81 103 -32 21 -79 32 -79 19z"/>
<path d="M1667 1122 c-33 -4 -53 -38 -43 -76 11 -44 78 -47 90 -4 6 27 4 30
-17 22 -9 -3 -13 -12 -10 -20 10 -26 -27 -15 -39 11 -10 21 -9 29 5 43 14 14
21 14 37 4 11 -7 20 -9 20 -5 -1 18 -17 28 -43 25z"/>
<path d="M1524 1095 c5 -21 3 -25 -15 -25 -16 0 -20 5 -16 20 4 14 0 20 -11
20 -14 0 -16 -9 -14 -55 3 -44 7 -55 21 -55 14 0 17 7 13 30 -3 23 0 30 12 30
10 0 16 -9 16 -25 0 -23 4 -25 44 -25 l44 0 -9 42 c-6 23 -8 47 -5 55 3 8 -2
13 -13 13 -16 0 -17 -7 -13 -51 4 -41 2 -51 -9 -47 -9 3 -15 22 -17 51 -2 35
-7 47 -19 47 -11 0 -14 -6 -9 -25z"/>
<path d="M1735 1065 c0 -46 3 -55 18 -55 14 0 16 5 11 25 -5 21 -3 25 16 25
19 0 21 -4 16 -25 -5 -20 -3 -25 11 -25 15 0 18 9 18 55 0 45 -3 55 -17 55
-11 0 -15 -6 -11 -20 4 -15 0 -20 -15 -20 -15 0 -19 5 -15 20 4 15 0 20 -13
20 -16 0 -19 -8 -19 -55z"/>
<path d="M1973 1094 c-3 -8 4 -25 16 -38 22 -23 28 -46 12 -46 -5 0 -12 8 -15
17 -5 12 -10 13 -18 5 -8 -8 -8 -15 2 -27 17 -20 37 -19 52 4 11 18 12 18 31
-5 19 -24 51 -32 62 -15 3 5 -5 11 -17 13 -18 2 -24 11 -26 36 -4 36 18 53 43
32 12 -10 15 -10 15 3 0 16 -34 29 -56 20 -8 -3 -20 -15 -27 -28 l-12 -22 -25
25 c-25 24 -25 24 -2 19 15 -3 22 -1 22 9 0 19 -49 18 -57 -2z"/>
<path d="M1279 1088 c0 -2 -1 -22 -3 -46 -2 -41 -19 -72 -32 -59 -3 3 -9 26
-11 50 -5 38 -8 44 -24 40 -16 -4 -17 -8 -7 -20 9 -11 9 -16 -3 -24 -23 -14
-32 -10 -26 11 4 15 0 20 -14 20 -16 0 -18 -4 -12 -27 4 -16 8 -40 8 -55 0
-29 10 -34 35 -18 10 6 11 10 3 10 -7 0 -13 9 -13 20 0 11 6 20 14 20 16 0 29
-27 20 -42 -4 -6 2 -8 16 -3 12 4 29 8 37 9 9 2 19 10 25 19 11 21 28 22 28 2
0 -17 9 -19 29 -6 9 6 10 11 2 15 -6 4 -20 25 -31 47 -11 21 -25 39 -30 39 -6
0 -10 -1 -11 -2z m26 -58 c3 -5 1 -10 -4 -10 -6 0 -11 5 -11 10 0 6 2 10 4 10
3 0 8 -4 11 -10z"/>
<path d="M1883 1074 c-8 -22 15 -44 26 -25 10 16 4 41 -10 41 -5 0 -12 -7 -16
-16z"/>
<path d="M1385 1070 c-10 -16 16 -43 28 -31 11 11 2 41 -12 41 -5 0 -13 -5
-16 -10z"/>
<path d="M2147 1043 c-2 -21 -6 -44 -8 -52 -2 -8 4 -17 14 -19 10 -2 17 0 16
5 -4 25 3 43 17 43 13 0 15 -7 11 -30 -5 -24 -3 -30 11 -30 11 0 17 8 18 23 0
12 4 37 8 55 7 28 5 32 -12 32 -15 0 -19 -5 -15 -20 4 -14 0 -20 -12 -20 -13
0 -16 6 -13 25 4 19 1 25 -12 25 -12 0 -19 -11 -23 -37z"/>
<path d="M2265 1036 c-29 -29 -31 -43 -9 -74 20 -29 79 -31 94 -3 22 41 5 83
-37 96 -17 4 -29 -1 -48 -19z m58 -10 c17 -18 11 -65 -9 -73 -34 -13 -59 48
-32 75 16 16 23 15 41 -2z"/>
<path d="M1057 1043 c-13 -3 -16 -10 -12 -21 4 -10 9 -34 12 -55 5 -36 8 -38
32 -32 14 4 32 11 38 17 19 16 16 55 -7 78 -20 20 -29 22 -63 13z m47 -29 c9
-24 7 -64 -3 -64 -13 0 -17 8 -26 48 -5 25 -3 32 8 32 8 0 18 -7 21 -16z"/>
<path d="M978 1023 c-16 -2 -28 -11 -28 -18 0 -8 6 -12 14 -9 14 5 26 -23 26
-63 0 -25 1 -26 24 -17 11 4 13 11 7 22 -4 10 -11 29 -15 45 -5 20 -3 27 9 27
8 0 15 5 15 10 0 10 -3 10 -52 3z"/>
<path d="M2382 1008 c-24 -31 -23 -57 2 -83 30 -30 49 -32 76 -5 25 25 26 62
2 83 -22 20 -65 22 -80 5z m56 -7 c21 -13 11 -75 -12 -79 -32 -7 -50 50 -24
76 14 14 19 15 36 3z"/>
<path d="M914 1004 c-9 -4 -8 -14 3 -36 9 -16 16 -40 16 -53 0 -17 4 -21 17
-18 17 4 17 8 4 39 -8 18 -14 43 -14 54 0 20 -5 23 -26 14z"/>
<path d="M2503 970 c-1 -11 -9 -34 -17 -50 -14 -30 -14 -31 17 -44 23 -9 34
-10 39 -2 13 19 9 24 -12 19 -24 -6 -25 5 -6 52 8 18 12 36 8 39 -12 13 -28 5
-29 -14z"/>
<path d="M824 974 c-18 -8 18 -104 39 -104 9 0 17 5 17 10 0 6 -4 10 -10 10
-5 0 -10 5 -10 12 0 6 8 4 19 -6 11 -10 25 -15 32 -10 9 5 8 10 -4 19 -10 7
-15 23 -14 41 2 26 -1 29 -28 31 -16 1 -35 0 -41 -3z m45 -17 c6 -8 8 -17 4
-20 -11 -12 -21 -7 -26 13 -6 23 5 26 22 7z"/>
<path d="M2270 616 c0 -19 -4 -22 -25 -18 -15 2 -25 0 -25 -7 0 -6 5 -11 10
-11 6 0 15 -11 20 -25 5 -14 15 -25 22 -25 9 0 9 3 0 12 -17 17 -15 28 5 21
13 -5 15 -3 9 12 -7 18 -6 18 13 1 13 -12 21 -14 26 -6 4 7 -2 18 -14 26 -12
8 -21 22 -21 30 0 8 -4 14 -10 14 -5 0 -10 -11 -10 -24z"/>
<path d="M1120 620 c0 -6 -11 -16 -25 -22 -26 -12 -36 -34 -11 -25 9 4 16 -3
20 -16 6 -20 8 -19 21 12 17 39 19 61 5 61 -5 0 -10 -5 -10 -10z"/>
<path d="M1152 562 c-18 -28 -20 -37 -10 -43 40 -26 90 10 69 50 -17 32 -35
30 -59 -7z m48 2 c0 -13 -21 -44 -30 -44 -14 0 -12 24 2 38 13 13 28 16 28 6z"/>
<path d="M2175 553 c4 -10 10 -30 13 -45 2 -16 9 -28 14 -28 6 0 8 7 5 15 -4
8 -2 17 3 20 4 3 10 0 12 -7 3 -7 10 -8 17 -4 9 6 3 16 -21 37 -38 32 -53 37
-43 12z"/>
<path d="M2082 517 c-26 -13 -41 -26 -37 -34 3 -10 0 -11 -14 -4 -10 6 -21 8
-23 5 -3 -3 -18 -7 -34 -10 -16 -3 -30 -6 -31 -8 -1 -1 3 -19 9 -39 9 -29 16
-37 32 -35 10 2 22 10 24 18 4 12 3 13 -10 2 -13 -10 -17 -10 -22 3 -3 8 0 15
6 15 7 0 3 7 -8 15 -18 14 -18 14 8 15 21 0 29 -6 34 -25 3 -14 13 -25 20 -25
12 0 12 5 -2 25 -20 31 -8 32 24 3 16 -15 23 -17 20 -8 -19 53 -19 60 -4 60 9
0 18 -11 22 -25 3 -14 12 -25 20 -25 17 0 17 1 -1 36 -11 22 -12 30 -2 36 13
8 37 -17 37 -39 0 -7 6 -10 13 -7 12 4 11 11 -2 39 -19 40 -22 41 -79 12z"/>
<path d="M1230 505 c0 -8 7 -15 15 -15 8 0 15 7 15 15 0 8 -7 15 -15 15 -8 0
-15 -7 -15 -15z"/>
<path d="M1291 479 c-13 -17 -20 -33 -16 -37 4 -4 10 -1 13 7 3 10 9 8 23 -10
l19 -24 0 48 c0 26 -3 47 -7 46 -5 0 -19 -14 -32 -30z"/>
<path d="M1365 480 c-3 -5 -1 -19 5 -31 13 -24 4 -41 -10 -19 -5 8 -12 11 -15
8 -11 -11 5 -28 26 -28 23 0 36 27 20 43 -19 19 -12 26 14 14 24 -12 25 -18 8
-64 -3 -7 -1 -13 5 -13 6 0 15 14 21 30 5 17 17 30 25 30 18 0 20 -9 6 -44
-10 -28 6 -48 21 -25 6 10 9 11 9 2 0 -7 5 -13 11 -13 6 0 9 7 6 15 -4 8 -2
17 3 20 6 4 10 14 10 24 0 12 -14 21 -52 31 -29 8 -56 14 -60 15 -3 0 -10 3
-14 8 -10 10 -32 9 -39 -3z m141 -67 c-10 -10 -19 5 -10 18 6 11 8 11 12 0 2
-7 1 -15 -2 -18z"/>
<path d="M1913 420 c6 -22 17 -40 24 -40 10 0 11 5 3 19 -5 11 -10 29 -10 40
0 12 -6 21 -14 21 -11 0 -11 -8 -3 -40z"/>
<path d="M1847 443 c-9 -16 5 -84 17 -80 6 2 11 9 11 16 0 6 6 15 13 20 20 12
10 46 -15 49 -11 2 -23 0 -26 -5z m33 -24 c0 -6 -4 -7 -10 -4 -5 3 -10 11 -10
16 0 6 5 7 10 4 6 -3 10 -11 10 -16z"/>
<path d="M1560 422 c0 -10 -7 -28 -16 -40 -8 -12 -11 -22 -5 -22 5 0 13 5 16
10 3 6 11 10 16 10 6 0 7 -4 4 -10 -3 -5 1 -10 10 -10 15 0 15 18 -1 68 -5 18
-24 14 -24 -6z"/>
<path d="M1723 433 c-18 -6 -16 -28 2 -43 8 -7 15 -17 15 -22 0 -6 -7 -5 -15
2 -12 10 -15 10 -15 -4 0 -17 9 -20 34 -10 21 8 20 23 -1 47 -10 11 -12 17 -5
13 6 -4 12 -3 12 3 0 13 -12 19 -27 14z"/>
<path d="M1780 411 c0 -16 -3 -38 -6 -48 -5 -16 -4 -16 11 2 12 14 19 16 22 8
3 -7 11 -13 19 -13 12 0 10 8 -6 40 -24 47 -40 52 -40 11z"/>
<path d="M1646 403 c-12 -12 -6 -33 9 -33 8 0 15 6 15 14 0 17 -14 28 -24 19z"/>
</g>
</svg>
