<?xml version="1.0" standalone="no"?>
<!DOCTYPE svg PUBLIC "-//W3C//DTD SVG 20010904//EN"
 "http://www.w3.org/TR/2001/REC-SVG-20010904/DTD/svg10.dtd">
<svg version="1.0" xmlns="http://www.w3.org/2000/svg"
 width="260.000000pt" height="260.000000pt" viewBox="0 0 260.000000 260.000000"
 preserveAspectRatio="xMidYMid meet">
<metadata>
Created by potrace 1.11, written by Peter Selinger 2001-2013
</metadata>
<g transform="translate(0.000000,260.000000) scale(0.100000,-0.100000)"
fill="#000000" stroke="none">
<path d="M1230 2429 c-77 -24 -165 -50 -400 -119 -96 -28 -188 -55 -205 -61
l-30 -9 2 -397 c0 -219 4 -424 7 -455 6 -61 54 -218 66 -218 4 0 21 5 38 11
28 10 30 13 21 31 -6 12 -21 51 -32 87 -19 61 -21 94 -25 477 l-3 411 63 17
c35 9 74 21 88 26 14 5 128 39 253 75 l228 67 227 -67 c125 -37 252 -75 282
-85 31 -9 70 -21 88 -25 l33 -7 -3 -416 c-4 -404 -5 -419 -27 -482 -13 -36
-27 -72 -31 -80 -6 -11 0 -18 22 -27 17 -7 34 -13 38 -13 8 0 38 84 61 170 14
55 17 886 3 899 -5 4 -40 17 -79 29 -207 62 -615 182 -617 181 -2 0 -32 -9
-68 -20z"/>
<path d="M388 2394 c-7 -12 -4 -25 20 -109 11 -38 26 -97 33 -130 19 -86 16
-330 -5 -430 -27 -133 -31 -240 -11 -331 9 -43 21 -83 26 -89 12 -12 12 2 -2
45 -19 64 -19 218 1 315 54 261 39 513 -43 704 -8 18 -17 30 -19 25z"/>
<path d="M2182 2344 c-45 -123 -65 -235 -65 -364 0 -67 12 -241 18 -250 2 -3
6 -21 9 -40 3 -19 10 -57 15 -85 12 -60 7 -196 -9 -254 -17 -63 -4 -62 15 1
26 86 26 214 -1 373 -34 205 -26 395 25 553 26 77 28 88 21 106 -5 15 -11 6
-28 -40z"/>
<path d="M380 2305 c-5 -62 -11 -109 -13 -111 -2 -2 -21 3 -42 11 -22 7 -41
12 -43 11 -1 -2 9 -28 23 -58 47 -103 51 -220 14 -438 -11 -68 -22 -158 -24
-200 -4 -91 16 -235 34 -252 12 -11 13 -9 7 7 -10 26 -26 113 -26 134 1 29 17
-9 24 -57 7 -50 34 -118 42 -110 3 4 -2 30 -10 59 -9 29 -15 69 -15 88 1 20 3
27 6 16 18 -83 36 -142 49 -171 28 -58 33 -37 8 31 -13 36 -24 78 -23 93 0 21
4 16 15 -22 22 -71 29 -48 10 31 -9 37 -18 95 -18 128 -2 61 10 194 18 207 12
19 32 230 28 295 -5 101 -59 362 -64 308z"/>
<path d="M2197 2248 c-44 -166 -53 -301 -31 -443 28 -176 40 -263 38 -286 -4
-75 -15 -139 -28 -176 -8 -24 -11 -45 -6 -48 8 -5 30 54 30 83 0 6 4 12 9 12
11 0 -14 -113 -34 -154 -19 -37 -19 -51 -1 -33 18 17 53 117 62 176 4 23 10
43 14 46 8 5 -7 -98 -21 -143 -6 -18 -9 -36 -6 -39 12 -11 28 41 52 161 3 15
8 26 11 23 5 -5 -12 -125 -23 -154 -5 -15 -3 -16 7 -6 18 16 37 157 34 248 -1
39 -12 129 -24 200 -36 217 -32 330 14 445 14 33 23 60 22 60 -2 0 -22 -7 -45
-15 -40 -14 -41 -14 -42 8 -1 32 -9 90 -13 94 -1 2 -10 -25 -19 -59z"/>
<path d="M1193 2282 c-6 -14 12 -32 32 -32 6 0 4 4 -4 9 -9 6 -10 11 -2 15 16
10 13 23 -5 23 -9 0 -18 -7 -21 -15z"/>
<path d="M1290 2284 c0 -8 5 -12 10 -9 6 3 10 10 10 16 0 5 -4 9 -10 9 -5 0
-10 -7 -10 -16z"/>
<path d="M1380 2291 c0 -5 -3 -18 -6 -28 -5 -16 -4 -16 10 1 18 23 20 36 6 36
-5 0 -10 -4 -10 -9z"/>
<path d="M1165 2280 c3 -5 8 -10 11 -10 2 0 4 5 4 10 0 6 -5 10 -11 10 -5 0
-7 -4 -4 -10z"/>
<path d="M1425 2281 c-3 -6 -2 -18 3 -27 7 -13 10 -13 20 -1 10 11 9 17 -2 26
-10 8 -16 9 -21 2z"/>
<path d="M1480 2265 c8 -10 9 -15 1 -15 -6 0 -11 -8 -11 -17 0 -15 2 -14 15 3
19 25 19 31 -1 38 -14 5 -15 4 -4 -9z"/>
<path d="M1063 2240 c6 -16 15 -30 19 -30 4 0 2 14 -3 30 -6 17 -15 30 -19 30
-5 0 -3 -13 3 -30z"/>
<path d="M1098 2264 c-8 -7 2 -44 12 -44 5 0 6 10 3 23 -4 20 -3 21 10 5 11
-13 20 -15 43 -8 16 4 22 9 12 9 -9 1 -19 7 -21 14 -3 6 -6 3 -7 -8 -1 -18 -1
-19 -11 -2 -10 17 -30 23 -41 11z"/>
<path d="M1523 2241 c-9 -14 -9 -22 -2 -27 15 -9 21 1 17 26 -3 21 -3 21 -15
1z"/>
<path d="M1025 2239 c-11 -16 -1 -19 13 -3 7 8 8 14 3 14 -5 0 -13 -5 -16 -11z"/>
<path d="M235 2206 c48 -63 68 -140 68 -256 0 -58 -5 -130 -11 -160 -7 -30
-15 -73 -18 -95 -3 -22 -8 -44 -11 -49 -3 -4 -7 -52 -9 -105 -3 -116 12 -236
34 -253 13 -11 14 -9 8 17 -3 17 -9 82 -12 145 -4 94 0 143 20 265 41 251 23
429 -50 502 -35 35 -48 27 -19 -11z"/>
<path d="M2341 2219 c-10 -11 -30 -55 -45 -97 -23 -70 -25 -88 -21 -197 4
-121 6 -143 31 -270 13 -71 13 -262 -1 -340 -7 -37 -6 -39 9 -25 38 36 40 256
4 454 -40 214 -26 360 41 455 12 16 21 32 21 35 0 13 -20 5 -39 -15z"/>
<path d="M1044 2222 c3 -6 -2 -13 -11 -15 -14 -4 -13 -5 5 -6 23 -1 30 13 10
25 -6 4 -8 3 -4 -4z"/>
<path d="M1610 2221 c8 -5 75 -26 148 -47 l133 -39 -3 -390 -3 -390 -29 -78
c-15 -43 -26 -81 -23 -83 7 -7 47 98 63 168 8 30 11 766 4 778 -6 9 -268 90
-291 90 -12 -1 -12 -2 1 -9z"/>
<path d="M818 2183 l-118 -36 0 -372 c0 -336 2 -379 19 -448 20 -75 48 -143
57 -134 2 2 -4 25 -15 51 -41 94 -46 156 -46 532 l0 358 124 38 c68 20 126 39
129 42 12 13 -40 2 -150 -31z"/>
<path d="M1317 2098 c-4 -12 -1 -28 5 -35 8 -10 4 -13 -21 -13 -17 0 -31 5
-31 10 0 6 7 10 15 10 8 0 15 2 15 4 0 2 3 11 6 20 4 11 0 16 -14 16 -22 0
-46 -23 -35 -34 4 -4 1 -11 -7 -16 -24 -15 -32 -12 -20 9 7 14 7 22 0 26 -14
9 -42 -15 -36 -30 6 -16 -51 -58 -66 -49 -7 5 -4 10 10 15 12 5 22 15 22 24 0
25 -27 17 -50 -15 -25 -35 -69 -44 -48 -10 7 10 9 22 5 26 -10 10 -37 -16 -37
-35 0 -10 -14 -27 -31 -40 -28 -21 -30 -21 -29 -4 6 54 -9 71 -27 31 -7 -16
-7 -28 0 -39 14 -22 -21 -95 -45 -93 -10 1 -22 -11 -29 -27 -14 -34 -24 -37
-26 -7 -2 20 -18 37 -35 38 -14 0 -9 -45 7 -66 13 -18 21 -74 10 -74 -3 0 -14
9 -26 21 -14 14 -24 18 -31 11 -15 -15 7 -50 34 -55 21 -4 21 -4 -3 -6 -27 -1
-64 -33 -52 -44 12 -12 33 -7 53 13 l20 20 0 -24 c0 -19 -8 -27 -34 -36 -30
-10 -55 -45 -41 -58 9 -9 36 9 45 30 8 17 9 11 4 -27 -4 -34 -13 -56 -30 -72
-13 -12 -24 -29 -24 -38 0 -24 29 -17 42 10 13 29 28 17 28 -22 0 -24 39 -58
52 -45 13 13 -8 59 -32 72 -14 8 -20 21 -20 45 0 37 15 49 17 14 2 -28 21 -49
38 -43 17 7 1 60 -21 68 -20 7 -18 35 6 73 21 35 56 57 109 67 28 5 32 4 21
-8 -6 -8 -31 -22 -56 -32 -43 -16 -65 -47 -46 -66 6 -6 19 3 37 24 l28 33 -8
-33 c-4 -19 -13 -45 -20 -58 -15 -30 -9 -65 10 -58 20 8 26 32 20 73 l-6 36
15 -32 c15 -33 30 -41 41 -24 3 5 -6 22 -19 38 -23 27 -24 29 -8 55 9 16 20
28 24 28 5 0 1 -11 -8 -26 -12 -18 -14 -28 -6 -36 16 -16 32 0 32 33 0 23 6
32 26 40 15 5 36 6 48 3 19 -6 17 -8 -13 -19 -40 -13 -57 -35 -47 -60 6 -17 7
-17 26 0 11 10 22 26 25 36 4 11 10 19 15 19 13 0 -1 -41 -17 -47 -7 -3 -20
-18 -29 -34 -12 -23 -12 -29 -1 -29 24 0 43 24 56 68 9 33 16 42 34 42 12 0
29 -5 37 -10 12 -8 11 -10 -7 -10 -20 0 -53 -33 -53 -52 0 -18 30 -6 50 19 17
21 25 25 37 17 18 -11 30 -36 16 -32 -20 5 -74 -15 -83 -32 -15 -28 -12 -33
15 -26 20 5 25 3 25 -13 0 -29 17 -34 34 -10 17 24 10 53 -10 45 -16 -6 -19
10 -4 19 26 16 63 -56 48 -94 -5 -14 -6 -31 -3 -38 2 -8 -2 -25 -11 -39 -11
-16 -15 -36 -11 -59 3 -19 0 -48 -6 -65 -8 -22 -9 -38 0 -60 11 -29 11 -30
-20 -30 -18 0 -45 -9 -62 -19 l-30 -19 -30 29 c-17 16 -40 30 -53 32 -12 2
-31 13 -42 25 -12 12 -27 22 -34 22 -8 0 -19 7 -26 15 -7 8 -17 15 -22 15 -6
0 -4 -8 3 -17 10 -12 10 -15 1 -9 -7 4 -19 22 -26 39 -13 29 -14 30 -15 9 -1
-14 11 -35 27 -50 15 -15 33 -39 39 -54 8 -17 20 -28 33 -28 11 0 20 -6 20
-13 0 -23 38 -50 72 -51 20 -1 41 -10 53 -23 11 -12 37 -24 58 -28 21 -3 46
-9 55 -13 22 -10 185 -8 202 3 7 4 27 10 43 12 17 1 42 13 55 26 13 12 33 21
43 19 26 -4 66 22 74 48 3 11 15 20 25 20 10 0 22 10 26 22 3 12 20 33 36 48
16 15 31 40 33 56 l4 29 -14 -32 c-8 -17 -20 -35 -26 -38 -7 -5 -7 0 1 16 l13
24 -24 -21 c-13 -11 -36 -25 -51 -32 -16 -6 -28 -16 -28 -21 0 -5 -16 -12 -35
-15 -22 -4 -43 -18 -56 -36 l-21 -28 -32 19 c-17 10 -45 19 -63 19 -31 0 -32
1 -21 30 5 17 7 43 3 58 -4 15 -9 47 -10 72 -2 25 -8 70 -14 100 -12 59 -6
125 10 114 6 -3 8 -13 5 -21 -8 -20 11 -53 31 -53 11 0 14 7 11 25 -5 22 -2
24 19 19 22 -6 24 -4 21 17 -2 19 -12 26 -43 33 -50 12 -50 12 -35 31 15 19
40 20 40 2 0 -8 12 -19 26 -25 24 -12 25 -11 22 15 -2 22 -9 29 -31 31 -35 4
-25 22 13 22 29 0 40 -15 40 -54 0 -29 36 -64 51 -49 8 8 7 18 -2 34 -11 22
-11 23 4 10 14 -11 18 -11 23 2 9 24 -11 50 -48 63 -28 10 -30 13 -14 19 10 5
30 4 45 -1 26 -10 42 -51 43 -116 1 -31 19 -36 38 -13 16 20 6 46 -16 38 -14
-5 -15 -3 -6 14 9 15 7 25 -5 43 -15 21 -15 22 6 11 12 -7 21 -21 21 -36 0
-13 5 -27 11 -31 6 -3 9 -19 5 -35 -7 -37 2 -59 23 -59 20 0 22 30 4 52 -17
19 -28 88 -14 88 6 0 8 -6 5 -14 -3 -7 7 -21 21 -30 l26 -17 -3 28 c-2 22 -13
32 -50 50 -59 28 -73 48 -27 38 44 -9 93 -42 113 -76 21 -36 20 -52 -4 -74
-23 -21 -27 -65 -6 -65 8 0 22 10 32 23 l16 22 -6 -25 c-3 -14 -6 -28 -6 -32
0 -5 -7 -8 -15 -8 -14 0 -35 -37 -35 -60 0 -13 42 -3 52 12 4 7 8 22 8 33 0
11 5 27 10 35 8 12 10 11 10 -6 0 -12 10 -25 25 -32 23 -11 25 -10 25 12 0 14
-10 32 -24 43 -13 10 -26 33 -30 51 -5 30 -4 32 14 22 10 -5 26 -10 35 -10 14
0 14 3 0 30 -11 21 -23 30 -40 30 -14 0 -29 8 -35 19 -13 26 -13 31 5 31 8 0
15 -4 15 -9 0 -14 32 -23 43 -12 15 15 -11 41 -42 42 -14 0 -20 3 -14 6 7 2
15 3 18 1 8 -5 36 42 30 52 -7 12 -36 1 -52 -19 -11 -14 -12 -12 -13 13 0 16
7 37 15 47 16 17 12 69 -6 69 -12 0 -27 -33 -21 -49 8 -24 -17 -2 -32 28 -9
16 -11 33 -6 41 9 14 -7 60 -21 60 -14 0 -20 -39 -9 -60 7 -12 9 -24 7 -27 -3
-2 6 -21 19 -40 13 -20 24 -43 24 -52 0 -13 -2 -13 -9 -2 -12 19 -31 5 -31
-24 0 -18 -4 -23 -16 -18 -12 4 -14 12 -8 32 15 49 12 104 -8 137 -13 23 -17
43 -13 66 7 40 -9 72 -25 48 -6 -8 -8 -25 -5 -38 6 -23 6 -23 -19 -5 -13 10
-30 31 -38 47 -18 40 -43 49 -34 12 3 -14 4 -26 1 -26 -17 0 -45 22 -45 35 0
8 -3 15 -7 16 -5 0 -16 2 -25 4 -26 5 -22 -24 4 -34 16 -6 18 -9 7 -13 -17 -7
-69 35 -69 55 0 8 -7 21 -16 28 -15 13 -17 11 -12 -19 4 -26 1 -32 -11 -30
-10 2 -15 12 -14 25 1 12 -4 26 -11 32 -11 9 -15 7 -19 -11z m-71 -71 c-10 -8
-16 -22 -14 -33 4 -17 7 -15 36 14 l31 34 24 -26 c25 -27 47 -34 47 -15 0 7
-8 18 -17 26 -16 12 -15 13 12 7 17 -4 38 -11 49 -16 17 -9 17 -11 -5 -21 -12
-7 -24 -18 -27 -24 -5 -18 24 -16 43 3 18 18 18 18 33 -12 10 -20 8 -20 -54
-20 -53 1 -64 4 -64 18 0 9 -4 19 -9 22 -11 7 -22 -20 -15 -37 3 -8 -2 -19 -9
-26 -12 -9 -16 -8 -21 6 -4 10 -2 19 3 21 14 5 15 52 2 52 -14 0 -26 -22 -23
-41 2 -13 -9 -15 -66 -15 -68 1 -69 1 -59 24 12 26 22 28 31 7 3 -8 14 -15 25
-15 26 0 18 24 -12 38 -21 10 -21 11 13 26 45 20 71 21 46 3z m-126 -33 c0 -3
-5 -14 -11 -25 -9 -18 -12 -19 -22 -5 -8 10 -20 14 -35 10 -18 -5 -20 -9 -11
-20 6 -8 19 -14 29 -14 30 0 30 -26 0 -48 -16 -12 -27 -28 -26 -36 3 -24 12
-28 26 -11 17 20 29 19 26 -2 -2 -10 -16 -21 -35 -26 -34 -8 -50 -32 -34 -48
7 -7 17 -2 31 15 31 41 44 36 57 -21 5 -28 4 -32 -9 -27 -11 4 -14 14 -10 29
3 13 1 26 -4 29 -12 7 -26 -29 -17 -44 10 -15 -33 -12 -71 6 -34 16 -48 54
-21 54 15 0 42 49 32 58 -3 3 -16 0 -30 -6 -18 -8 -25 -20 -26 -39 l-1 -28
-10 28 c-12 33 4 83 23 72 14 -9 79 3 79 15 0 10 -39 25 -57 22 -25 -5 -12 9
34 38 42 27 93 40 93 24z m416 -4 c33 -13 107 -70 100 -78 -3 -3 -12 1 -21 8
-9 7 -25 10 -42 5 l-28 -7 23 -19 c18 -14 28 -16 42 -9 25 14 28 13 40 -11 7
-12 8 -33 4 -52 -7 -30 -8 -31 -13 -8 -4 13 -16 30 -29 39 -21 14 -22 13 -22
-11 0 -17 7 -28 20 -32 44 -14 8 -58 -60 -71 -24 -5 -31 -4 -26 5 10 15 -3 53
-16 45 -5 -3 -7 -17 -4 -30 5 -17 2 -24 -9 -24 -18 0 -19 11 -3 45 14 30 19
31 43 5 19 -21 45 -27 45 -11 0 18 -32 41 -56 41 -21 0 -24 4 -23 38 0 31 2
33 9 16 11 -28 29 -39 42 -26 8 8 1 19 -20 39 -35 31 -31 48 11 58 33 9 35 21
5 29 -15 4 -27 0 -35 -11 -7 -9 -14 -15 -15 -12 -27 44 -28 49 -9 49 11 0 32
-5 47 -10z m-388 -80 c-13 -21 -28 -27 -28 -10 0 5 8 14 18 19 23 14 24 14 10
-9z m72 11 c0 -4 -10 -11 -22 -16 -24 -10 -38 -45 -18 -45 6 0 21 11 34 25 26
28 37 30 53 14 9 -9 8 -18 -4 -35 -12 -19 -18 -21 -33 -12 -19 12 -50 5 -50
-12 0 -5 14 -10 30 -10 31 0 36 -6 21 -28 -6 -10 -13 -10 -37 2 -16 8 -37 17
-46 20 -20 6 -25 37 -6 34 7 -2 14 8 16 22 2 14 10 30 17 36 15 11 45 15 45 5z
m211 -8 c4 -5 9 -19 11 -33 2 -14 9 -24 16 -22 6 1 12 -4 12 -12 0 -19 -92
-58 -102 -43 -13 20 -9 30 11 24 24 -6 46 7 37 22 -9 14 -39 14 -53 0 -8 -8
-16 -4 -28 15 -20 30 -19 31 13 41 19 5 25 2 29 -14 3 -12 9 -21 13 -21 5 0
15 -3 24 -6 27 -10 18 25 -9 38 -14 6 -25 15 -25 19 0 9 40 3 51 -8z m39 -9
c0 -8 -4 -12 -10 -9 -5 3 -10 10 -10 16 0 5 5 9 10 9 6 0 10 -7 10 -16z m-153
-63 c10 -15 9 -22 -7 -36 -17 -15 -19 -15 -28 1 -7 12 -6 24 1 36 15 23 19 23
34 -1z m-410 -4 c-3 -8 3 -33 13 -55 11 -23 15 -42 10 -42 -4 0 -15 -3 -23 -6
-10 -4 -14 2 -14 21 0 32 -11 44 -23 25 -14 -22 -12 -4 4 35 14 32 45 52 33
22z m281 -60 c27 -28 48 -91 29 -84 -7 2 -13 17 -15 35 -3 34 -32 68 -32 38 0
-22 -16 -12 -23 14 -7 27 14 26 41 -3z m272 14 c0 -5 -8 -15 -17 -22 -14 -12
-16 -12 -9 0 6 9 5 12 -4 9 -19 -6 -36 -35 -27 -45 5 -4 12 -1 17 7 6 8 10 11
10 6 0 -9 -50 -59 -55 -54 -6 9 17 66 35 86 21 22 50 30 50 13z m-182 -40 c-7
-9 -14 -18 -15 -20 -2 -2 -3 10 -3 29 0 28 2 31 15 20 12 -10 13 -16 3 -29z
m62 7 c-1 -28 -2 -30 -11 -15 -6 10 -8 25 -5 33 9 24 16 16 16 -18z m-465 -27
c3 -5 1 -12 -5 -16 -5 -3 -10 1 -10 9 0 18 6 21 15 7z m862 -18 c-3 -3 -11 -2
-17 2 -9 6 -9 10 1 16 14 8 27 -7 16 -18z m-427 -38 c0 -19 -4 -35 -10 -35 -5
0 -10 16 -10 35 0 19 5 35 10 35 6 0 10 -16 10 -35z m213 -15 c3 -11 2 -20 -3
-20 -4 0 -10 9 -13 20 -3 11 -2 20 3 20 4 0 10 -9 13 -20z m-105 -78 c2 -7 -2
-10 -12 -6 -9 3 -16 11 -16 16 0 13 23 5 28 -10z m-139 -34 c1 -5 -3 -8 -7 -8
-4 0 -8 12 -9 28 -1 23 -1 24 7 7 5 -11 9 -23 9 -27z m50 -2 c-9 -8 -10 -7 -5
7 3 10 7 24 7 30 1 7 3 4 6 -7 3 -10 -1 -23 -8 -30z m457 7 c-10 -10 -19 5
-10 18 6 11 8 11 12 0 2 -7 1 -15 -2 -18z m-472 -42 c3 -4 3 -11 0 -14 -8 -8
-34 3 -34 14 0 11 27 12 34 0z m0 -70 c3 -5 0 -14 -8 -20 -10 -9 -15 -8 -19 3
-9 22 15 37 27 17z m-40 -72 c-8 -13 -24 -1 -24 18 0 13 3 13 15 3 8 -7 12
-16 9 -21z m76 11 c0 -13 -5 -18 -15 -14 -12 5 -13 10 -4 20 15 19 19 18 19
-6z m-35 -51 c10 -15 -1 -23 -20 -15 -9 3 -13 10 -10 16 8 13 22 13 30 -1z
m-37 -71 c-7 -19 -21 -12 -25 11 -3 20 -1 22 12 11 9 -7 14 -17 13 -22z m70
-3 c-2 -10 -7 -12 -17 -5 -13 7 -13 11 -1 25 15 18 24 8 18 -20z m-398 -11 c0
-20 -7 -17 -20 6 -9 16 -8 18 5 14 8 -4 15 -12 15 -20z m720 5 c-7 -11 -14
-18 -17 -15 -3 3 0 12 7 21 18 21 23 19 10 -6z m-354 -48 c-4 -5 -13 -8 -22
-4 -11 4 -12 8 -3 20 14 16 36 2 25 -16z m265 -22 c-13 -11 -27 -17 -30 -13
-3 3 5 14 18 25 13 11 27 17 30 13 3 -3 -5 -14 -18 -25z m-541 6 c20 -24 5
-28 -21 -6 -19 16 -20 20 -8 21 9 0 22 -7 29 -15z m200 -14 c0 -14 -31 -22
-54 -14 -18 6 -16 8 14 14 19 3 36 7 38 8 1 0 2 -3 2 -8z m173 -8 c-9 -7 -20
-13 -24 -13 -3 0 -11 6 -17 13 -8 9 -2 12 24 12 30 0 32 -2 17 -12z m-98 -13
c3 -5 -1 -10 -9 -10 -9 0 -16 5 -16 10 0 6 4 10 9 10 6 0 13 -4 16 -10z m155
-20 c-15 -10 -60 -14 -60 -5 0 6 64 23 70 18 2 -2 -2 -8 -10 -13z m-290 0 c11
-7 8 -10 -15 -9 -16 0 -39 4 -50 9 -16 7 -14 9 15 9 19 0 42 -4 50 -9z m100
-10 c13 -8 13 -10 -2 -10 -9 0 -20 5 -23 10 -8 13 5 13 25 0z m70 0 c0 -5 -7
-10 -16 -10 -8 0 -12 5 -9 10 3 6 10 10 16 10 5 0 9 -4 9 -10z m-120 -20 c0
-5 -5 -10 -11 -10 -5 0 -7 5 -4 10 3 6 8 10 11 10 2 0 4 -4 4 -10z m160 6 c0
-3 -4 -8 -10 -11 -5 -3 -10 -1 -10 4 0 6 5 11 10 11 6 0 10 -2 10 -4z"/>
<path d="M881 1933 c-10 -21 -9 -29 2 -40 20 -20 41 8 33 42 -8 32 -20 32 -35
-2z"/>
<path d="M1008 1417 c3 -35 1 -52 -9 -58 -8 -5 -9 -9 -4 -9 16 0 31 13 38 33
10 26 24 21 36 -15 13 -37 21 -35 14 5 -3 15 -10 27 -16 27 -6 0 -2 6 9 14 28
22 7 51 -38 52 l-35 1 5 -50z m62 18 c0 -15 -34 -38 -43 -29 -7 8 4 37 17 46
13 9 26 0 26 -17z"/>
<path d="M1516 1459 c-3 -8 -6 -33 -8 -56 -4 -44 4 -53 41 -53 40 0 69 73 38
98 -22 19 -66 25 -71 11z m63 -33 c11 -28 2 -54 -20 -61 -29 -9 -35 -1 -31 48
3 39 6 44 24 39 11 -2 23 -14 27 -26z"/>
<path d="M480 1363 c1 -10 7 -34 14 -55 12 -34 12 -36 -7 -32 -32 6 -40 -7
-18 -27 19 -18 40 -75 45 -123 2 -27 28 -96 36 -96 3 0 18 27 33 60 47 99 30
202 -43 264 -36 30 -60 34 -60 9z"/>
<path d="M2059 1353 c-70 -60 -87 -173 -39 -271 14 -28 27 -51 30 -52 8 0 40
83 40 105 0 36 20 91 40 113 26 28 25 31 -9 27 l-30 -4 15 34 c31 74 10 96
-47 48z"/>
<path d="M115 1266 c-63 -29 -102 -86 -112 -162 -3 -28 -1 -50 7 -59 17 -20
32 -19 29 3 -2 9 0 29 4 45 6 23 11 26 26 18 13 -7 29 -4 61 11 68 34 136 35
197 4 61 -30 74 -46 37 -42 -45 5 -100 -14 -129 -44 l-26 -27 46 -6 c42 -6
125 -44 125 -58 0 -3 -17 -11 -39 -17 -32 -10 -74 -40 -60 -43 2 0 17 -3 33
-5 36 -6 73 -25 109 -57 25 -21 33 -23 53 -13 13 6 24 18 24 27 0 21 -65 127
-103 168 -31 32 -31 33 -5 16 16 -9 41 -36 58 -58 37 -50 38 -43 5 25 -30 63
-31 68 -5 35 25 -32 57 -105 66 -152 3 -19 9 -35 13 -35 18 1 32 20 28 36 -3
11 -8 36 -11 56 -14 92 -75 202 -143 256 -97 76 -220 109 -288 78z m201 -61
c46 -19 43 -26 -3 -9 -54 19 -115 17 -175 -6 -43 -16 -49 -17 -36 -3 21 21
104 42 146 37 19 -3 49 -11 68 -19z"/>
<path d="M2357 1270 c-86 -22 -181 -89 -230 -163 -62 -92 -105 -258 -71 -271
22 -8 24 -8 24 8 0 35 43 148 66 173 l25 28 -26 -52 c-32 -67 -32 -75 3 -30
24 32 82 85 82 75 0 -2 -17 -22 -37 -44 -31 -33 -63 -87 -100 -166 -2 -4 9
-14 25 -22 28 -15 30 -14 55 14 32 36 75 59 116 62 17 1 31 5 31 9 0 12 -29
31 -67 44 l-36 13 39 25 c39 26 65 35 114 37 24 1 24 1 -12 35 -37 34 -56 40
-121 36 -32 -1 -26 9 28 44 44 29 145 27 209 -3 39 -19 50 -21 57 -10 16 23
36 -24 30 -69 -3 -24 29 -13 35 12 15 60 -27 162 -82 196 -38 23 -106 31 -157
19z m100 -61 c17 -5 36 -16 42 -23 7 -9 -6 -7 -42 5 -63 22 -99 23 -160 5 -26
-8 -45 -10 -41 -5 9 15 97 37 134 33 19 -3 49 -9 67 -15z"/>
<path d="M452 1210 c7 -10 14 -18 15 -16 6 6 -9 36 -18 36 -5 0 -4 -9 3 -20z"/>
<path d="M2136 1215 c-9 -26 -7 -32 5 -12 6 10 9 21 6 23 -2 3 -7 -2 -11 -11z"/>
<path d="M692 1145 c-57 -27 -75 -46 -103 -109 -17 -40 -20 -58 -13 -105 4
-31 7 -59 6 -62 -1 -4 8 -5 19 -2 14 4 18 11 13 25 -12 38 -11 53 2 79 30 60
104 77 144 34 29 -31 52 -18 43 26 -5 27 2 35 30 30 13 -2 7 22 -10 41 -15 17
-15 19 3 32 26 19 14 28 -41 31 -30 1 -63 -6 -93 -20z m8 -43 c-8 -2 -35 -26
-60 -51 -43 -44 -44 -44 -24 -11 21 36 83 85 93 74 3 -4 -1 -9 -9 -12z"/>
<path d="M1768 1159 c-10 -6 -9 -11 7 -23 19 -14 19 -15 2 -33 -22 -25 -22
-41 1 -39 13 1 17 -7 18 -32 1 -48 16 -57 44 -27 42 44 113 28 144 -33 7 -15
12 -36 10 -47 -1 -11 -4 -29 -6 -40 -2 -11 3 -21 13 -23 25 -5 36 119 15 169
-22 53 -63 97 -105 115 -42 18 -123 25 -143 13z m172 -68 c14 -10 34 -33 44
-52 18 -32 17 -31 -19 9 -20 24 -51 49 -69 57 -24 12 -26 14 -6 9 14 -3 36
-14 50 -23z"/>
<path d="M860 1035 c0 -12 53 -85 62 -85 5 0 -5 20 -22 45 -29 42 -40 53 -40
40z"/>
<path d="M1702 995 c-18 -25 -29 -45 -24 -45 9 0 47 45 66 78 18 31 -12 7 -42
-33z"/>
<path d="M830 999 c0 -9 -9 -24 -20 -34 -26 -24 -17 -36 23 -28 46 8 49 15 22
48 -17 21 -24 25 -25 14z"/>
<path d="M1742 983 c-12 -17 -22 -33 -22 -36 0 -8 70 -18 81 -11 7 4 3 14 -9
28 -11 11 -21 27 -24 35 -3 10 -11 5 -26 -16z"/>
<path d="M1188 955 c-2 -1 -39 -5 -83 -9 -92 -7 -233 -29 -297 -46 -23 -7 -50
-14 -58 -15 -91 -20 -365 -140 -391 -171 -9 -11 -2 -10 27 2 43 18 94 34 94
30 0 -2 -29 -20 -65 -41 -36 -21 -65 -42 -65 -47 0 -5 8 -4 18 1 10 5 42 19
71 30 38 14 49 16 40 5 -6 -8 -17 -14 -23 -14 -15 -1 -109 -70 -103 -76 3 -3
13 -1 24 5 10 6 40 20 66 31 52 22 55 10 4 -17 -36 -18 -109 -75 -104 -80 2
-1 26 8 53 21 76 36 105 41 49 8 -27 -17 -63 -44 -80 -62 l-30 -32 72 36 c80
40 106 47 52 13 -46 -29 -121 -88 -116 -93 2 -2 35 12 73 32 38 19 59 27 46
17 -69 -54 -121 -103 -108 -103 8 0 16 4 18 9 5 15 165 99 257 135 77 31 163
59 217 71 76 16 165 34 199 40 70 10 368 14 430 5 33 -4 76 -11 95 -13 196
-27 441 -117 605 -222 30 -19 58 -35 60 -35 9 0 -29 35 -80 73 -57 44 -49 47
23 8 28 -16 52 -26 52 -21 0 11 -67 63 -107 84 -18 9 -33 18 -33 21 0 6 71
-20 109 -39 47 -25 37 -5 -17 32 -26 19 -56 40 -67 48 -19 13 58 -13 109 -37
36 -17 -57 62 -96 82 -21 11 -38 21 -38 24 0 5 90 -29 121 -45 10 -6 21 -10
26 -10 11 1 -32 35 -89 71 -27 17 -48 32 -48 34 0 4 62 -20 97 -37 45 -22 31
-1 -21 33 -29 18 -62 39 -72 46 -11 7 12 1 50 -13 38 -14 70 -23 73 -21 6 6
-148 89 -223 120 -183 77 -436 126 -671 131 -79 2 -144 2 -145 1z m32 -160 c0
-25 -3 -45 -8 -45 -8 0 -13 58 -7 78 9 25 15 11 15 -33z m80 36 c0 -5 -9 -7
-19 -4 -24 6 -38 -31 -21 -52 16 -19 34 -19 26 0 -3 9 0 15 9 15 8 0 15 -8 15
-18 0 -12 -9 -18 -28 -20 -38 -3 -58 35 -36 67 15 21 54 30 54 12z m50 -12 c0
-12 5 -19 13 -16 6 2 11 12 11 21 -1 9 3 16 10 16 7 0 10 -16 8 -45 -2 -25 -8
-45 -14 -45 -5 0 -6 9 -3 21 6 17 3 20 -12 17 -10 -2 -17 -11 -15 -21 2 -9 -1
-17 -7 -17 -5 0 -11 20 -13 45 -2 31 1 45 9 45 7 0 13 -9 13 -21z m-220 -9 c0
-13 5 -18 16 -13 8 3 13 12 10 19 -3 8 1 14 8 14 9 0 15 -15 18 -40 2 -28 0
-40 -10 -40 -7 0 -12 6 -10 14 2 8 0 15 -4 15 -26 3 -29 -1 -23 -21 5 -16 4
-20 -3 -13 -14 14 -24 85 -12 85 6 0 10 -9 10 -20z m429 -1 c4 -12 2 -12 -12
0 -10 7 -17 9 -17 3 0 -5 7 -15 15 -22 17 -14 20 -36 5 -45 -5 -3 -7 0 -5 8 3
7 -3 22 -15 32 -15 14 -17 21 -8 32 13 16 30 13 37 -8z m65 5 c9 -3 16 -11 16
-16 0 -6 -6 -5 -15 2 -19 16 -35 4 -35 -26 0 -16 7 -27 22 -33 12 -4 17 -11
11 -14 -14 -9 -53 21 -53 40 0 9 7 25 17 35 18 21 16 20 37 12z m-625 -44 c19
-33 20 -40 7 -40 -9 0 -16 9 -16 20 0 11 -4 20 -10 20 -5 0 -9 -3 -9 -7 4 -22
-2 -43 -12 -43 -6 0 -7 8 -3 23 5 12 8 32 7 45 -1 33 11 27 36 -18z m462 17
c-13 -13 -26 -3 -16 12 3 6 11 8 17 5 6 -4 6 -10 -1 -17z m215 -2 c-2 -7 2
-16 9 -19 16 -6 29 9 20 24 -3 6 1 7 9 4 13 -5 13 -10 4 -27 -6 -12 -11 -23
-10 -24 7 -10 0 -33 -9 -33 -6 0 -8 8 -4 19 3 12 0 21 -10 25 -10 4 -15 -1
-15 -14 0 -11 -5 -20 -11 -20 -8 0 -9 11 -5 31 3 17 6 38 6 46 0 8 5 11 11 8
6 -4 8 -13 5 -20z m-756 1 c0 -7 3 -28 6 -45 4 -20 3 -31 -5 -31 -6 0 -11 9
-11 20 0 12 -7 20 -16 20 -11 0 -15 -6 -11 -20 3 -11 2 -22 -2 -25 -4 -2 -12
16 -18 40 -8 36 -8 45 3 45 8 0 13 -6 12 -12 -2 -7 4 -13 12 -13 9 0 14 7 12
18 -2 9 2 17 8 17 5 0 10 -6 10 -14z m150 -1 c0 -8 -4 -15 -9 -15 -13 0 -22
16 -14 24 11 11 23 6 23 -9z m-238 -22 c21 -19 23 -44 6 -61 -23 -23 -44 -13
-54 28 -9 33 -9 40 5 43 9 3 18 5 20 6 3 0 13 -6 23 -16z m976 5 c17 -17 15
-53 -3 -68 -20 -17 -62 -5 -70 20 -14 44 41 80 73 48z m-278 -32 c0 -5 -7 -3
-15 4 -8 7 -12 17 -9 22 7 10 24 -9 24 -26z m-779 15 c-11 -7 -11 -15 -3 -39
10 -30 7 -42 -10 -42 -5 0 -7 4 -4 9 9 14 -12 63 -24 56 -5 -3 -10 0 -10 7 0
8 14 14 33 15 21 2 27 0 18 -6z m1155 -12 c19 -21 11 -54 -15 -69 -41 -21 -86
55 -45 78 24 13 42 11 60 -9z m-1211 -31 c4 -18 13 -36 19 -40 7 -5 5 -8 -5
-8 -9 0 -20 11 -23 24 -3 13 -9 31 -12 40 -3 9 -2 16 4 16 6 0 14 -15 17 -32z
m-45 7 c6 -8 9 -19 5 -25 -4 -6 -1 -17 5 -25 7 -9 8 -15 2 -15 -13 0 -33 25
-26 33 10 10 -5 39 -16 32 -6 -4 -5 -18 4 -40 8 -19 11 -37 7 -40 -5 -2 -15
13 -24 35 -14 37 -14 41 1 50 23 13 28 12 42 -5z m1305 -2 c-3 -10 -9 -30 -12
-45 -3 -16 -10 -25 -18 -22 -11 4 -10 11 1 32 8 15 14 33 14 40 0 6 5 12 11
12 7 0 8 -7 4 -17z m15 -67 c0 -3 -4 -8 -10 -11 -5 -3 -10 -1 -10 4 0 6 5 11
10 11 6 0 10 -2 10 -4z"/>
<path d="M798 764 c-9 -9 7 -57 20 -62 17 -5 15 43 -1 57 -8 6 -16 8 -19 5z"/>
<path d="M1757 763 c-13 -13 -7 -54 9 -60 24 -9 46 24 33 48 -10 19 -30 25
-42 12z"/>
<path d="M1849 729 c-18 -34 18 -72 41 -44 16 19 5 62 -15 62 -9 0 -20 -8 -26
-18z"/>
<path d="M1138 613 c-21 -2 -38 -8 -38 -12 0 -8 82 -82 157 -140 l43 -34 37
29 c21 15 40 31 43 34 3 3 31 27 63 54 31 27 57 52 57 57 0 5 -21 9 -46 9 -41
0 -54 -6 -99 -45 l-53 -45 -62 50 c-34 28 -63 49 -64 48 0 -1 -18 -3 -38 -5z"/>
<path d="M1245 610 c3 -5 18 -18 33 -29 l27 -19 29 25 c35 29 29 41 -6 13 -26
-20 -26 -20 -51 0 -27 21 -42 26 -32 10z"/>
<path d="M724 526 c-69 -24 -71 -25 -59 -34 6 -4 17 -16 25 -27 10 -12 1 -9
-25 10 -49 37 -30 8 34 -50 117 -107 268 -191 406 -225 277 -70 585 19 808
234 53 52 60 64 20 39 -17 -10 -23 -11 -15 -3 20 23 15 27 -53 50 l-64 21 -53
-40 c-76 -57 -191 -116 -278 -142 -94 -29 -243 -31 -340 -6 -87 23 -214 87
-287 146 l-59 48 -60 -21z m1046 -91 c0 -9 7 -18 15 -21 8 -4 15 -10 15 -16 0
-14 -49 25 -50 40 0 6 5 12 10 12 6 0 10 -7 10 -15z m-926 -17 c-4 -13 -7 -28
-7 -35 0 -7 -4 -10 -9 -7 -5 4 -7 13 -4 21 4 11 0 13 -17 9 l-22 -6 23 11 c12
7 22 16 22 21 0 4 5 8 11 8 6 0 8 -9 3 -22z m61 -48 c-3 -11 -13 -20 -21 -20
-13 0 -13 2 0 16 9 8 14 20 10 25 -3 5 -14 -1 -24 -13 -24 -28 -26 -16 -4 17
14 22 18 23 31 10 8 -9 12 -23 8 -35z m855 36 c9 -12 8 -15 -7 -13 -11 0 -25
7 -32 14 -9 10 -8 13 7 13 11 0 25 -6 32 -14z m-50 -36 c14 -11 20 -20 13 -20
-6 0 -15 5 -18 10 -4 6 -10 8 -15 5 -4 -3 -10 2 -14 10 -7 20 4 19 34 -5z m50
6 c0 -3 -4 -8 -10 -11 -5 -3 -10 -1 -10 4 0 6 5 11 10 11 6 0 10 -2 10 -4z
m-100 -25 c5 -11 10 -26 10 -33 -1 -7 -8 0 -16 16 -12 21 -19 25 -27 17 -9 -9
-8 -16 1 -31 7 -12 8 -21 2 -25 -6 -3 -10 0 -10 7 0 22 -17 41 -29 34 -8 -5
-8 -13 -1 -27 11 -20 -3 -28 -15 -9 -12 20 -26 10 -15 -10 6 -11 7 -20 1 -20
-5 0 -12 11 -15 25 -4 17 -11 22 -22 18 -13 -5 -13 -7 -2 -14 11 -7 11 -9 0
-9 -8 0 -12 -6 -9 -12 2 -7 11 -12 18 -10 11 3 12 1 2 -9 -15 -15 -27 -5 -37
27 -5 16 0 23 20 32 14 7 30 9 36 6 6 -4 13 -2 17 3 6 11 61 42 73 43 4 0 12
-9 18 -19z m-716 -12 c-3 -5 -10 -7 -15 -3 -5 3 -7 10 -3 15 3 5 10 7 15 3 5
-3 7 -10 3 -15z m60 -26 c-6 -33 -14 -43 -14 -19 0 13 -5 16 -20 11 -20 -6
-20 -5 2 17 28 30 38 26 32 -9z m696 27 c0 -5 -2 -10 -4 -10 -3 0 -8 5 -11 10
-3 6 -1 10 4 10 6 0 11 -4 11 -10z m-650 -63 c-10 -9 -11 -9 -6 0 3 6 2 14 -4
18 -5 3 -10 14 -10 23 0 13 4 11 16 -7 13 -18 14 -25 4 -34z m40 38 c0 4 5 3
11 -1 6 -3 7 -9 2 -13 -5 -3 -14 -17 -21 -31 l-12 -25 5 29 c4 20 1 32 -12 43
-17 13 -16 13 5 3 12 -6 22 -8 22 -5z m69 -29 c0 -6 -4 -20 -8 -30 -6 -15 -10
-16 -16 -7 -6 11 -9 11 -16 0 -12 -19 -12 3 1 35 6 17 14 24 25 20 8 -3 15
-11 14 -18z m324 -14 c4 -18 3 -31 -2 -28 -10 7 -20 53 -13 61 7 7 8 5 15 -33z
m-273 -11 c6 -23 6 -31 -2 -29 -7 3 -14 20 -16 39 -4 40 5 35 18 -10z m221 17
l10 -23 -5 23 c-5 24 9 31 17 8 3 -8 -1 -20 -8 -26 -8 -7 -12 -17 -8 -24 4 -7
2 -8 -5 -1 -12 12 -27 65 -18 65 4 0 11 -10 17 -22z m-401 2 c0 -5 -2 -10 -4
-10 -3 0 -8 5 -11 10 -3 6 -1 10 4 10 6 0 11 -4 11 -10z m298 3 c0 -5 2 -16 7
-26 10 -24 -5 -39 -25 -26 -13 9 -12 10 3 5 21 -7 22 7 2 24 -8 7 -12 16 -9
21 6 11 25 12 22 2z m60 -18 c16 -34 15 -37 -6 -24 -10 6 -18 20 -18 30 0 26
11 24 24 -6z m-118 -10 c0 -8 -4 -15 -10 -15 -5 0 -10 7 -10 15 0 8 5 15 10
15 6 0 10 -7 10 -15z m-87 -10 c-3 -9 -8 -14 -10 -11 -3 3 -2 9 2 15 9 16 15
13 8 -4z"/>
<path d="M1130 280 c0 -5 5 -10 10 -10 6 0 10 5 10 10 0 6 -4 10 -10 10 -5 0
-10 -4 -10 -10z"/>
<path d="M810 545 c0 -11 118 -90 187 -125 186 -95 399 -94 598 4 74 36 190
115 182 123 -3 2 -31 -13 -64 -35 -158 -108 -268 -146 -423 -145 -153 0 -262
37 -408 139 -62 43 -72 49 -72 39z"/>
<path d="M180 515 c-52 -13 -96 -24 -98 -24 -5 -1 33 -49 72 -91 17 -19 35
-40 39 -47 5 -8 -16 -47 -53 -100 -33 -48 -57 -89 -53 -90 5 -1 55 10 113 26
l105 28 0 161 c0 139 -2 162 -15 161 -8 0 -58 -11 -110 -24z"/>
<path d="M2275 380 c1 -87 3 -161 5 -163 8 -6 213 -57 217 -53 2 1 -24 42 -58
90 l-60 88 34 41 c19 23 49 57 66 75 17 17 30 32 28 32 -2 0 -49 11 -105 25
-56 14 -107 25 -114 25 -11 0 -13 -33 -13 -160z"/>
<path d="M675 405 c124 -114 316 -213 467 -242 100 -19 282 -13 372 11 140 39
281 116 401 220 75 65 63 71 -15 7 -207 -172 -396 -244 -625 -237 -128 4 -216
26 -340 86 -85 41 -206 121 -253 167 -8 7 -23 18 -35 24 -12 5 1 -11 28 -36z"/>
<path d="M398 369 c-32 -22 -58 -46 -59 -54 -1 -8 -1 -26 -1 -40 0 -14 0 -30
1 -37 1 -6 28 28 61 77 33 48 59 89 58 90 -2 2 -29 -15 -60 -36z"/>
<path d="M2131 393 c8 -20 104 -163 110 -163 9 0 2 92 -8 99 -5 3 -31 21 -57
40 -27 18 -47 29 -45 24z"/>
</g>
</svg>
