<?xml version="1.0" standalone="no"?>
<!DOCTYPE svg PUBLIC "-//W3C//DTD SVG 20010904//EN"
 "http://www.w3.org/TR/2001/REC-SVG-20010904/DTD/svg10.dtd">
<svg version="1.0" xmlns="http://www.w3.org/2000/svg"
 width="256.000000pt" height="256.000000pt" viewBox="0 0 256.000000 256.000000"
 preserveAspectRatio="xMidYMid meet">
<metadata>
Created by potrace 1.11, written by Peter Selinger 2001-2013
</metadata>
<g transform="translate(0.000000,256.000000) scale(0.100000,-0.100000)"
fill="#000000" stroke="none">
<path d="M1169 2496 c-2 -2 -29 -7 -60 -10 -67 -8 -77 -10 -149 -31 -30 -8
-64 -17 -75 -20 -43 -10 -209 -93 -275 -138 -292 -197 -495 -519 -538 -854 -9
-72 -9 -240 0 -313 58 -477 401 -882 863 -1019 131 -38 196 -46 375 -45 163 1
270 22 415 79 354 139 628 441 729 803 34 125 41 178 41 332 0 188 -16 277
-81 447 -101 264 -307 494 -564 630 -62 33 -159 75 -180 79 -3 0 -31 8 -62 18
-31 9 -69 19 -83 22 -14 2 -37 7 -52 10 -35 7 -298 16 -304 10z m307 -49 c294
-52 567 -219 745 -454 218 -288 290 -640 206 -1008 -57 -249 -254 -527 -482
-682 -80 -54 -232 -130 -275 -138 -3 0 -27 -8 -55 -18 -83 -27 -221 -47 -335
-47 -398 0 -762 197 -987 535 -126 189 -195 427 -192 661 8 557 403 1031 954
1143 69 14 126 18 240 16 83 -2 164 -5 181 -8z"/>
<path d="M1236 2276 c-30 -25 -45 -61 -40 -98 1 -16 -1 -28 -5 -28 -13 0 0
-51 21 -85 31 -52 24 -68 -39 -97 -32 -15 -71 -30 -86 -33 -35 -9 -54 -37 -60
-90 -3 -22 -15 -64 -28 -92 -13 -29 -21 -54 -18 -57 2 -2 29 0 59 4 70 10 428
10 498 1 29 -4 55 -4 58 1 3 4 -6 33 -20 63 -14 29 -26 69 -26 88 0 45 -24 72
-80 90 -25 9 -63 24 -84 33 -35 17 -37 21 -32 53 3 18 12 41 21 51 12 14 15
32 11 84 -8 97 -27 125 -90 129 -24 2 -43 -3 -60 -17z"/>
<path d="M1710 2230 c-61 -8 -149 -50 -231 -111 -67 -50 -114 -97 -105 -107 3
-2 28 15 55 39 101 87 227 149 304 149 148 0 191 -204 106 -501 l-19 -66 -92
17 c-51 10 -100 18 -108 18 -8 0 -49 4 -90 8 -158 17 -448 9 -620 -16 -112
-16 -112 -16 -116 0 -14 67 -24 142 -24 177 0 37 4 44 35 63 81 50 92 158 23
222 -85 79 -231 14 -230 -102 1 -39 32 -105 52 -112 6 -2 12 -35 15 -73 3 -39
11 -95 17 -125 20 -93 22 -90 -62 -114 -357 -106 -496 -292 -336 -451 83 -82
241 -151 431 -190 44 -8 89 -18 100 -21 13 -4 17 -3 10 3 -5 6 -39 16 -75 23
-179 36 -354 114 -437 196 -81 80 -84 150 -10 227 56 57 139 102 264 143 140
46 146 45 167 -13 91 -255 220 -492 389 -715 81 -108 95 -132 84 -142 -162
-129 -164 -130 -213 -105 -68 35 -144 13 -184 -54 -68 -112 62 -253 178 -193
36 19 72 62 72 86 0 22 5 27 89 89 30 22 73 58 96 80 l42 40 63 -57 c149 -135
265 -201 366 -210 177 -14 244 144 189 443 -15 82 -78 272 -95 289 -8 8 -9 6
-4 -9 4 -11 10 -24 14 -30 10 -13 68 -249 75 -300 4 -35 6 -156 3 -200 -3 -30
-54 -120 -79 -138 -18 -13 -43 -19 -77 -19 -91 1 -205 66 -336 192 l-79 76 67
80 c134 159 285 403 366 593 23 53 48 110 55 126 7 17 17 43 20 58 7 25 11 27
39 21 17 -3 68 -23 114 -44 l82 -39 0 -42 c0 -141 191 -192 255 -68 25 47 27
75 10 116 -27 65 -75 95 -140 89 -20 -2 -39 -6 -41 -9 -3 -3 -39 10 -79 30
-41 19 -82 36 -92 38 -10 2 -18 4 -18 5 0 1 -7 3 -15 5 -8 2 -28 8 -44 14 -24
10 -27 15 -21 39 96 375 25 608 -175 582z m-230 -633 c19 -3 58 -8 85 -12 52
-6 191 -33 212 -40 27 -9 -125 -313 -250 -502 -77 -116 -235 -314 -256 -321
-5 -2 -30 24 -55 57 -133 173 -292 471 -365 683 -45 131 -47 123 46 134 32 3
59 8 61 9 6 5 484 -2 522 -8z"/>
<path d="M1018 1584 c-2 -1 -25 -4 -52 -7 -76 -7 -111 -68 -81 -140 l15 -37
61 58 c77 72 109 129 74 129 -8 0 -16 -1 -17 -3z"/>
<path d="M1144 1515 c2 -42 -2 -100 -9 -130 -23 -97 -39 -253 -36 -356 1 -27
18 -63 67 -138 36 -55 71 -101 76 -101 5 0 8 6 5 13 -2 6 0 25 4 41 5 16 11
70 14 120 3 50 8 123 12 161 3 39 6 76 6 83 0 16 10 6 14 -16 1 -9 5 -55 8
-102 10 -152 15 -205 19 -225 2 -11 5 -26 5 -34 1 -15 62 56 117 135 32 46 35
57 35 120 0 39 -2 81 -5 95 -3 13 -8 47 -11 74 -5 52 -10 84 -25 150 -5 22 -7
68 -6 103 2 34 0 65 -5 68 -5 2 -72 7 -149 10 l-140 4 4 -75z"/>
<path d="M1530 1563 c0 -19 57 -82 140 -153 l24 -21 16 32 c16 30 16 34 -4 73
-12 22 -22 42 -22 44 -3 6 -154 31 -154 25z"/>
<path d="M703 1383 c-13 -2 -23 -9 -23 -15 0 -6 11 -8 25 -6 14 3 25 3 25 1 0
-3 -14 -24 -31 -49 -27 -36 -30 -46 -19 -59 14 -17 52 -11 87 14 27 19 27 24
7 78 -17 43 -22 46 -71 36z"/>
<path d="M1802 1346 l-22 -46 28 -25 c15 -14 34 -25 42 -26 8 0 23 -2 32 -4
29 -5 28 21 -2 69 l-30 46 25 0 c14 0 25 5 25 10 0 6 -8 10 -17 10 -10 0 -27
3 -38 6 -17 4 -25 -4 -43 -40z"/>
<path d="M1790 1100 c0 -5 5 -10 11 -10 5 0 7 5 4 10 -3 6 -8 10 -11 10 -2 0
-4 -4 -4 -10z"/>
<path d="M1126 700 c8 -68 15 -76 42 -48 l21 23 -34 40 -35 40 6 -55z"/>
<path d="M1416 706 c-14 -19 -32 -41 -41 -49 -13 -14 -11 -20 20 -54 19 -21
35 -32 35 -25 0 17 0 18 10 53 16 54 21 109 12 109 -5 0 -21 -15 -36 -34z"/>
<path d="M1185 475 c-21 -18 -30 -34 -32 -61 -2 -35 -19 -78 -45 -116 -7 -9
-10 -20 -7 -23 9 -8 96 -13 108 -6 5 4 9 55 8 119 0 61 -1 112 -2 112 0 -1
-13 -12 -30 -25z"/>
<path d="M1363 380 c-2 -122 -6 -115 72 -111 48 3 53 7 37 29 -27 38 -40 69
-46 107 -6 35 -39 85 -56 85 -3 0 -7 -49 -7 -110z"/>
</g>
</svg>
